<svg xmlns="http://www.w3.org/2000/svg" xmlns:xlink="http://www.w3.org/1999/xlink" width="150" height="150" viewBox="0 0 150 150">
  <defs>
    <linearGradient id="coin-big-b" x1="50%" x2="50%" y1="0%" y2="100%">
      <stop offset="0%" stop-color="#FFF000" stop-opacity=".5"/>
      <stop offset="100%" stop-opacity=".15"/>
    </linearGradient>
    <circle id="coin-big-a" cx="75" cy="75" r="75"/>
    <path id="coin-big-c" d="M55.3610202,0 C58.6056397,0 65.6464638,10.1729751 76.4834926,30.5189254 C98.0641361,34.9252353 109.355412,38.7805984 110.357319,42.0850149 C111.359227,45.3894314 104.350849,55.6596006 89.3321855,72.8955224 C91.927881,96.0277015 91.927881,108.371343 89.3321855,109.926448 C86.7364899,111.481552 75.4776606,107.917771 55.5556974,99.2351045 C36.0249523,108.606095 24.7336768,112.105081 21.6818708,109.73206 C18.6300648,107.359039 18.6300648,94.9506011 21.6818708,72.5067463 C6.39026082,55.1910117 -0.812794272,45.0504346 0.072705494,42.0850149 C0.95820526,39.1195953 12.3792656,35.2642321 34.3358865,30.5189254 C45.1080229,10.1729751 52.1164008,4.15138694e-16 55.3610202,0 Z"/>
  </defs>
  <g fill="none" fill-rule="evenodd">
    <use fill="#FD0" xlink:href="#coin-big-a"/>
    <use fill="url(#coin-big-b)" xlink:href="#coin-big-a"/>
    <circle cx="75.178" cy="74.822" r="71.615" fill="#FD0"/>
    <circle cx="75.178" cy="74.822" r="62.352" fill="#F4C300"/>
    <g transform="translate(19.952 14.608)">
      <use fill="#FFF" fill-opacity=".25" xlink:href="#coin-big-c"/>
      <path fill="#FD0" stroke="#979797" stroke-opacity=".15" stroke-width="2.85" d="M77.4257535,29.2571797 C99.4341614,33.7809147 110.483536,37.589569 111.721184,41.6714876 C112.943827,45.7039172 106.107242,55.7738561 90.81804,73.3591774 C93.4697443,97.1976425 93.4407316,109.126357 90.0646324,111.149008 C86.8563978,113.07109 75.9067117,109.633556 55.5840023,100.801722 C35.6853387,110.312011 24.5095085,113.736102 20.8070352,110.857136 C17.1454302,108.009948 17.1113178,95.7755731 20.1822292,72.9611639 C4.56289915,55.2390383 -2.40082434,45.3875615 -1.29288945,41.6772366 C-0.171397136,37.9215096 10.901862,34.1515752 33.3868797,29.2663131 C44.4361277,8.45267866 51.2789466,-1.42517815 55.3610202,-1.42517815 C59.4404202,-1.42517815 66.3132893,8.4500441 77.4257485,29.2571703 Z"/>
      <path fill="#000" fill-opacity=".15" d="M41.6864608 67.3396675C45.9619952 67.3396675 45.9619952 61.9957978 45.9619952 55.4038005 45.9619952 48.8118032 45.9619952 43.4679335 41.6864608 43.4679335 37.4109264 43.4679335 37.4109264 48.8118032 37.4109264 55.4038005 37.4109264 61.9957978 37.4109264 67.3396675 41.6864608 67.3396675zM69.4774347 67.3396675C73.7529691 67.3396675 73.7529691 61.9957978 73.7529691 55.4038005 73.7529691 48.8118032 73.7529691 43.4679335 69.4774347 43.4679335 65.2019002 43.4679335 65.2019002 48.8118032 65.2019002 55.4038005 65.2019002 61.9957978 65.2019002 67.3396675 69.4774347 67.3396675z"/>
    </g>
  </g>
</svg>
