<svg xmlns="http://www.w3.org/2000/svg" xmlns:xlink="http://www.w3.org/1999/xlink" width="327" height="389" viewBox="0 0 327 389">
  <defs>
    <rect id="fire-flower-a" width="400" height="400"/>
    <linearGradient id="fire-flower-c" x1="50%" x2="50%" y1="0%" y2="100%">
      <stop offset="0%" stop-opacity="0"/>
      <stop offset="100%" stop-opacity=".15"/>
    </linearGradient>
  </defs>
  <g fill="none" fill-rule="evenodd" transform="translate(-38 -6)">
    <mask id="fire-flower-b" fill="#fff">
      <use xlink:href="#fire-flower-a"/>
    </mask>
    <g mask="url(#fire-flower-b)">
      <g transform="rotate(48 -86.04 455.59)">
        <path fill="#85F312" fill-rule="nonzero" stroke="#85F312" d="M55.748267,2.49892 C89.785604,25.384092 106.969365,55.341622 106.969365,92.032823 C106.969365,128.724023 89.785604,158.681553 55.748267,181.566725 L53.516411,183.067325 L51.284556,181.566725 C17.247218,158.681553 0.063457,128.724023 0.063457,92.032823 C0.063457,55.341622 17.247218,25.384092 51.284556,2.49892 L53.516411,0.998321 L55.748267,2.49892 Z"/>
        <path stroke="#000" stroke-opacity=".15" d="M55.748267,2.49892 C89.785604,25.384092 106.969365,55.341622 106.969365,92.032823 C106.969365,128.724023 89.785604,158.681553 55.748267,181.566725 L53.516411,183.067325 L51.284556,181.566725 C17.247218,158.681553 0.063457,128.724023 0.063457,92.032823 C0.063457,55.341622 17.247218,25.384092 51.284556,2.49892 L53.516411,0.998321 L55.748267,2.49892 Z"/>
      </g>
    </g>
    <g mask="url(#fire-flower-b)">
      <g transform="rotate(-56 301.866 138.958)">
        <path fill="#85F312" fill-rule="nonzero" stroke="#85F312" d="M56.575401,2.249467 C90.612738,25.134639 107.796499,55.092169 107.796499,91.78337 C107.796499,128.47457 90.612738,158.4321 56.575401,181.317273 L54.3435449,182.817872 L52.111689,181.317273 C18.0743518,158.4321 0.8905908,128.47457 0.8905908,91.78337 C0.8905908,55.092169 18.0743518,25.134639 52.111689,2.249467 L54.3435449,0.748868 L56.575401,2.249467 Z"/>
        <path stroke="#000" stroke-opacity=".15" d="M56.575401,2.249467 C90.612738,25.134639 107.796499,55.092169 107.796499,91.78337 C107.796499,128.47457 90.612738,158.4321 56.575401,181.317273 L54.3435449,182.817872 L52.111689,181.317273 C18.0743518,158.4321 0.8905908,128.47457 0.8905908,91.78337 C0.8905908,55.092169 18.0743518,25.134639 52.111689,2.249467 L54.3435449,0.748868 L56.575401,2.249467 Z"/>
      </g>
    </g>
    <g mask="url(#fire-flower-b)">
      <g transform="translate(184 189)">
        <rect width="35.133" height="204.937" x=".676" y=".057" fill="#85F312" fill-rule="nonzero" stroke="#85F312"/>
        <rect width="35.133" height="204.937" x=".676" y=".057" stroke="#000" stroke-opacity=".15"/>
      </g>
    </g>
    <g mask="url(#fire-flower-b)">
      <g transform="translate(39 7)">
        <ellipse cx="162.805" cy="123.475" fill="#EC1C24" fill-rule="nonzero" stroke="#EC1C24" rx="162.425" ry="123.475"/>
        <ellipse cx="162.805" cy="123.475" stroke="url(#fire-flower-c)" rx="162.425" ry="123.475"/>
      </g>
    </g>
    <ellipse cx="202.681" cy="130.912" fill="#FFAA27" fill-rule="nonzero" mask="url(#fire-flower-b)" rx="126.915" ry="95.405"/>
    <ellipse cx="201.805" cy="131.35" fill="#FD0" fill-rule="nonzero" mask="url(#fire-flower-b)" rx="91.028" ry="68.709"/>
    <path fill="#404040" fill-rule="nonzero" d="M158.916849,172.050328 C172.045952,172.050328 172.045952,155.591649 172.045952,135.28884 C172.045952,114.986031 172.045952,98.5273523 158.916849,98.5273523 C145.787746,98.5273523 145.787746,114.986031 145.787746,135.28884 C145.787746,155.591649 145.787746,172.050328 158.916849,172.050328 Z M246.006565,172.050328 C259.573304,172.050328 259.573304,155.591649 259.573304,135.28884 C259.573304,114.986031 259.573304,98.5273523 246.006565,98.5273523 C232.439825,98.5273523 232.439825,114.986031 232.439825,135.28884 C232.439825,155.591649 232.439825,172.050328 246.006565,172.050328 Z" mask="url(#fire-flower-b)"/>
  </g>
</svg>
