<?xml version="1.0" encoding="UTF-8" standalone="no"?>
<svg
   xmlns:dc="http://purl.org/dc/elements/1.1/"
   xmlns:cc="http://creativecommons.org/ns#"
   xmlns:rdf="http://www.w3.org/1999/02/22-rdf-syntax-ns#"
   xmlns:svg="http://www.w3.org/2000/svg"
   xmlns="http://www.w3.org/2000/svg"
   xmlns:sodipodi="http://sodipodi.sourceforge.net/DTD/sodipodi-0.dtd"
   xmlns:inkscape="http://www.inkscape.org/namespaces/inkscape"
   version="1.1"
   width="595.2756"
   height="538.5827"
   id="svg2"
   inkscape:version="0.91 r13725"
   sodipodi:docname="mario.svg">
  <metadata
     id="metadata63">
    <rdf:RDF>
      <cc:Work
         rdf:about="">
        <dc:format>image/svg+xml</dc:format>
        <dc:type
           rdf:resource="http://purl.org/dc/dcmitype/StillImage" />
        <dc:title></dc:title>
      </cc:Work>
    </rdf:RDF>
  </metadata>
  <defs
     id="defs61" />
  <sodipodi:namedview
     pagecolor="#ffffff"
     bordercolor="#666666"
     borderopacity="1"
     objecttolerance="10"
     gridtolerance="10"
     guidetolerance="10"
     inkscape:pageopacity="0"
     inkscape:pageshadow="2"
     inkscape:window-width="1446"
     inkscape:window-height="856"
     id="namedview59"
     showgrid="false"
     inkscape:zoom="0.87637423"
     inkscape:cx="192.33171"
     inkscape:cy="325.89079"
     inkscape:window-x="0"
     inkscape:window-y="0"
     inkscape:window-maximized="0"
     inkscape:current-layer="Layer1000" />
  <path
     d="  M-28.3465,-25.6468 L623.6221,-25.6468 L623.6221,564.2295 L-28.3465,564.2295 L-28.3465,-25.6468 Z"
     style="fill: none; "
     id="path4" />
  <path
     d="  M85.0394,127.5591 L510.2362,127.5591 L510.2362,411.0236 L85.0394,411.0236 L85.0394,127.5591 Z"
     style="fill: none; "
     id="path6" />
  <g
     id="Layer1000">
    <path
       d="M 355.87224,70.679302 C 348.34444,43.280298 336.59098,19.05105 295.25476,17.007585 257.52094,16.473066 187.43292,61.937193 172.12523,145.18852 c -37.54393,15.93045 -45.6997,45.63363 -21.46887,75.14058 -3.44493,30.94147 12.91753,50.09215 44.83185,59.98634 -16.10154,6.31326 -28.73031,14.94312 -39.78043,24.62594 -18.31112,-0.21113 -28.20304,7.57646 -29.67737,23.36299 -38.48397,21.46841 -32.02452,88.50551 22.73161,101.02951 0.10568,2.73594 0.21069,5.47233 0.31568,8.20849 -9.24811,17.42968 -11.48393,35.39953 -9.78715,53.67195 1.23672,16.77252 10.02386,24.37544 23.04729,26.83597 24.47751,22.20795 75.10122,15.18888 76.71925,-31.5717 7.97224,-5.84052 12.86616,-17.83816 13.26014,-38.83316 44.83164,11.68104 83.34911,1.89389 115.55218,-29.36168 11.83923,13.33913 25.7305,19.49511 42.62183,15.15449 16.74105,8.91817 32.74324,11.17933 43.56887,-33.15037 24.79817,-26.71196 36.90509,-74.86133 4.73575,-84.61205 -21.08779,-30.21754 -63.10449,-24.82395 -76.40334,2.5257 -5.26255,-6.84075 -10.52466,-9.4719 -15.78586,-7.89302 -3.1573,-3.26255 -6.31438,-6.52485 -9.47146,-9.78716 18.52203,-18.70645 34.62333,-40.43874 46.41028,-67.56346 9.70093,-9.83942 20.72638,-18.06943 18.31155,-42.62183 1.44583,-3.15753 2.55061,-6.31461 3.15709,-9.47146 11.06099,-3.44064 20.31136,-9.48867 20.83727,-28.09872 37.78133,-38.93996 26.94143,-90.295972 -23.99436,-97.872415 -15.2468,-17.285307 -35.47918,-14.601645 -48.93597,3.788669 -5.68302,1.051832 -11.36627,4.209814 -17.04882,11.997178 z"
       style="fill:#373435;fill-opacity:1;fill-rule:evenodd"
       id="path9"
       inkscape:connector-curvature="0" />
    <path
       d="m 168.96792,428.0709 c -2.21002,0.26364 -4.41914,0.47387 -6.63007,0.31569 0,3.47299 0,6.94576 0,10.41875 -16.49235,27.99824 -12.20311,65.63314 -2.84139,65.03775 -0.7891,-38.02844 8.78103,-63.91644 9.47146,-75.77219 z"
       style="fill:#fffcdb;fill-rule:evenodd"
       id="path11"
       inkscape:connector-curvature="0" />
    <path
       d="m 456.90151,332.09305 c -1.76218,17.25859 -8.02361,34.51787 -17.36428,51.77761 -4.00434,4.8405 -5.79118,9.68124 -7.26144,14.52288 -2.68321,8.26078 -7.10326,14.78584 -12.31309,20.52158 3.15754,3.99914 6.73598,3.36731 10.73444,-1.89434 5.83893,-9.15465 6.94644,-18.4668 9.47146,-24.62595 22.96899,-27.09937 27.33609,-53.6199 16.73291,-60.30178 z"
       style="fill:#fffcdb;fill-rule:evenodd"
       id="path13"
       inkscape:connector-curvature="0" />
    <path
       d="m 225.79695,412.91642 c -3.99914,-4.84027 -9.6817,-8.41827 -17.0486,-10.73421 -2.63094,1.89457 -5.68256,3.36844 -9.15579,4.42005 -3.78821,10.52331 -12.20717,17.67929 -25.25731,21.46864 0.21092,5.05142 -0.84137,10.10307 -3.1573,15.15449 -4.23539,18.20611 -5.23518,36.41221 -4.42005,54.619 9.958,31.81385 65.19004,25.39537 57.77631,-22.41592 6.52438,0.7366 10.10216,-2.31594 10.7342,-9.15578 2.65697,-13.05037 4.28767,-26.09983 4.42005,-39.14884 -0.4741,-10.47351 -10.2617,-12.89491 -13.26014,-4.42005 -4.99892,13.26014 -5.88081,26.51984 -6.63008,39.7802 -3.93305,-13.22664 -5.25577,-27.90341 5.99871,-49.56758 z"
       style="fill:#d19360;fill-rule:evenodd"
       id="path15"
       inkscape:connector-curvature="0" />
    <path
       d="m 385.1262,371.4451 c 5.88623,-7.25262 7.56785,-17.8687 5.04531,-31.84847 5.0453,-34.47647 46.56416,-38.99631 57.39047,-10.72131 2.733,6.5167 1.57684,12.40293 -0.6307,19.55054 -2.16273,11.6919 -7.81429,24.7787 -14.18999,38.15539 -5.04599,6.096 -6.09669,14.71478 -10.40586,21.12739 -8.98628,17.66276 -37.68151,11.24993 -45.408,-3.78416 5.1279,-10.82676 8.96523,-21.6533 8.19877,-32.47938 z"
       style="fill:#d19360;fill-rule:evenodd"
       id="path17"
       inkscape:connector-curvature="0" />
    <path
       d="m 270.94449,299.57406 c 19.866,44.88254 -15.37491,84.71502 -57.14472,63.14341 4.73143,10.62897 6.30895,21.25773 0.94706,31.88739 11.10375,4.6296 15.62857,9.26056 18.31155,13.89174 14.6546,1.35168 16.01261,10.82971 15.47017,21.46865 55.71158,23.05453 123.76973,-10.91977 123.44522,-62.51205 -12.12458,-10.71022 -18.59624,-24.53498 -13.89151,-44.51593 -6.78351,-9.35312 -14.90035,-18.3247 -24.62595,-26.83598 -1.06632,0.88799 -2.13241,1.40621 -3.19826,1.87126 5.78122,6.0435 10.93175,12.2977 15.45138,18.76235 1.26138,1.99708 0.84092,3.36346 -1.26139,4.09938 -10.98472,2.52571 -21.96853,3.94324 -32.95212,5.20303 -3.53093,-6.18517 -6.63437,-12.21102 -17.028,-20.96987 -7.84167,-0.15253 -15.68267,-2.3974 -23.52343,-5.49338 z m 37.87094,28.51284 c -13.84264,0 -25.06882,11.8614 -25.06882,26.48792 0,14.62653 11.22618,26.48816 25.06882,26.48816 13.84285,0 25.06904,-11.86163 25.06904,-26.48816 0,-14.62652 -11.22619,-26.48792 -25.06904,-26.48792 z"
       style="fill:#008bd0;fill-rule:evenodd"
       id="path19"
       inkscape:connector-curvature="0" />
    <path
       d="m 309.05191,333.7629 c -10.22957,0 -18.5261,9.21371 -18.5261,20.57567 0,11.36151 8.29653,20.57522 18.5261,20.57522 10.22978,0 18.52632,-9.21371 18.52632,-20.57522 0,-11.36196 -8.29654,-20.57567 -18.52632,-20.57567 z"
       style="fill:#ffcb00;fill-rule:evenodd"
       id="path21"
       inkscape:connector-curvature="0" />
    <path
       d="m 364.86576,325.75445 c -3.37705,1.26975 -2.35576,9.89894 0.87125,19.97575 3.22723,10.07681 8.07203,17.47562 10.81793,16.52245 2.7459,-0.95339 3.776,-10.68917 0.54855,-20.76598 -3.22724,-10.07682 -8.86068,-17.00198 -12.23773,-15.73222 z"
       style="fill:#ffcb00;fill-rule:evenodd"
       id="path23"
       inkscape:connector-curvature="0" />
    <path
       d="m 212.22111,351.98326 c 3.73573,-10.15556 7.7344,-20.04794 12.3131,-29.36168 9.55112,-5.99712 20.54874,-10.20512 29.36146,-16.10177 4.31458,-2.94616 5.68255,-7.15553 4.10436,-12.62854 16.25157,11.44863 12.97252,34.24926 10.41875,44.83185 -8.65636,26.91517 -37.22893,31.17726 -56.19767,13.26014 z"
       style="fill:#ed3237;fill-opacity:1;fill-rule:evenodd"
       id="path25"
       inkscape:connector-curvature="0" />
    <path
       d="m 168.0211,311.25487 c 23.60172,-21.62457 51.01385,-29.09737 77.03469,-20.5209 5.89302,1.89478 8.20782,8.73576 1.26274,11.9974 -5.81404,3.16047 -9.76385,6.26437 -18.94293,9.78715 -7.68349,3.88915 -15.36539,9.99489 -23.04729,16.41722 -9.39634,-10.22323 -21.86671,-15.44708 -36.30721,-17.68087 z"
       style="fill:#ed3237;fill-opacity:1;fill-rule:evenodd"
       id="path27"
       inkscape:connector-curvature="0" />
    <path
       d="m 337.51699,316.17798 c -3.82397,-6.003 -8.16007,-11.32191 -13.24588,-15.64013 -6.88488,3.43838 -13.77112,4.57032 -20.65737,5.05573 4.20598,5.00344 7.83262,10.00575 11.19586,15.00784 7.20193,-1.29057 14.66635,-2.71331 22.70739,-4.42344 z"
       style="fill:#ed3237;fill-opacity:1;fill-rule:evenodd"
       id="path29"
       inkscape:connector-curvature="0" />
    <path
       d="m 341.04158,289.87448 c 0.72076,1.33946 2.0609,2.47275 4.01951,3.40103 10.44748,-9.27504 20.16154,-20.50937 29.37366,-33.08382 -3.60763,0 -7.21482,0 -10.82177,0 -7.30535,12.96052 -14.85486,22.49399 -22.5714,29.68279 z"
       style="fill:#ed3237;fill-opacity:1;fill-rule:evenodd"
       id="path31"
       inkscape:connector-curvature="0" />
    <path
       d="m 139.13713,327.59629 c 6.36394,-0.51529 11.05329,0.30844 13.29522,3.0919 -32.50247,5.36416 -40.79606,28.94235 -37.41246,54.72739 5.51172,23.50487 56.01345,50.40376 74.51601,21.33468 -2.2675,-0.82462 -4.535,-1.64902 -6.80228,-2.47366 -3.71016,7.21438 -8.34813,6.80183 -7.42076,-3.09168 1.44219,-6.54544 5.51307,-10.6679 9.89442,-15.45999 4.12224,-2.57707 6.80138,-1.23761 4.32862,4.01973 -1.75223,1.75155 -3.09259,3.70948 -4.01949,5.87447 14.75777,6.49859 25.19055,-5.59182 23.18962,-21.64358 -1.58499,-10.66812 -6.76472,-20.87189 -18.24254,-30.30103 4.32886,0.20592 8.65748,2.06112 12.98632,5.56534 5.97744,-23.42205 -53.07881,-45.42657 -64.31268,-21.64357 z m 18.55165,34.01141 c 3.31482,-5.79322 6.34857,-2.43473 5.56558,1.23672 -1.33991,4.9471 -2.67982,9.89442 -4.01951,14.84151 -1.6135,8.5294 -14.66183,7.67105 -9.89418,-3.71038 2.78277,-4.12291 5.56534,-8.24561 8.34811,-12.36785 z m -21.02531,-8.03922 c 3.31481,-5.79322 6.34855,-2.43474 5.56556,1.23694 -1.33991,4.9471 -2.67982,9.89442 -4.0195,14.84129 -1.61327,8.52938 -14.66184,7.67126 -9.89419,-3.71016 2.78279,-4.12269 5.56556,-8.24539 8.34813,-12.36807 z"
       style="fill:#ffffff;fill-rule:evenodd"
       id="path33"
       inkscape:connector-curvature="0" />
    <path
       d="m 388.96693,63.543226 c 7.21391,-8.554959 18.75736,-6.596124 26.28154,4.947323 40.4247,2.192595 43.17648,31.175001 32.7747,54.109151 -10.51266,24.73548 -26.28154,29.06432 -46.37927,18.55166 6.24875,5.67103 10.35765,12.94717 30.30105,8.34835 0,10.51267 -6.18382,15.76889 -18.55167,16.38736 -11.23455,-13.81095 -25.3535,-19.48017 -42.35978,-17.6243 -0.92759,-5.05029 -1.85518,-10.10057 -2.78277,-15.15041 16.18141,-2.83459 31.02202,-9.01886 43.90583,-20.09772 13.1918,6.38952 23.49808,5.35872 30.91952,-3.09191 -8.45155,2.16431 -16.90332,1.64881 -25.35395,-2.78278 3.29852,-8.09219 0.92781,-13.347956 -4.01973,-17.314948 0.69225,-9.549091 1.93394,-20.80242 -24.73547,-26.281776 z"
       style="fill:#ffffff;fill-rule:evenodd"
       id="path35"
       inkscape:connector-curvature="0" />
    <path
       d="m 368.56006,78.384747 c 4.12179,-6.389517 11.95487,-8.656796 23.49877,-6.802295 9.01887,1.752004 12.93517,6.904579 14.53217,13.604578 -8.7557,-5.208696 -22.67142,-6.547698 -38.03094,-6.802283 z"
       style="fill:#ffffff;fill-rule:evenodd"
       id="path37"
       inkscape:connector-curvature="0" />
    <path
       d="m 343.87506,120.56257 c -40.41679,19.05518 -81.42467,48.92965 -112.3951,43.56911 7.36758,19.83952 12.41922,26.36368 16.41722,26.83574 13.99697,5.36688 16.31246,17.04837 4.10436,23.67889 0.94933,13.05105 -8.31191,17.04996 -19.89021,10.73444 -7.05098,-4.84141 -13.57583,-10.73444 -18.94293,-18.94316 -11.36559,-18.94293 -35.57061,-12.62855 -45.14754,1.89433 -12.78989,18.25975 -4.58048,38.46543 11.36581,50.51465 14.9051,8.06413 31.71699,8.87924 50.83032,0.94728 36.99631,43.81487 91.61689,56.1094 122.81385,5.99847 -5.47279,2.52548 -10.94466,2.94595 -16.41723,1.26297 -22.41977,41.47518 -43.99251,28.31754 -40.72748,-12.94445 -1.68344,-3.89414 -2.52503,-7.78804 -2.52572,-11.68149 -16.59101,-2.15865 -26.17427,-29.83737 -10.73442,-43.25321 18.07531,11.62855 34.65048,16.25883 50.19895,16.10154 25.70471,24.73118 74.37705,13.57539 76.40332,-21.46864 2.55152,-41.35975 -52.33067,-50.83168 -76.40332,-12.31308 2.03124,-6.38341 5.85431,-12.38392 11.469,-17.99928 -1.16431,-2.48882 -2.19509,-5.3189 -3.0041,-8.37165 -3.05548,-11.52965 -1.79342,-21.87033 2.81717,-23.09301 4.61195,-1.22268 10.83039,7.13607 13.88654,18.66572 0.15615,0.58883 0.29962,1.1738 0.43314,1.75494 1.01472,-0.63862 2.0575,-1.27044 3.12856,-1.89683 -3.20935,-11.6084 -5.88239,-23.53927 -17.68019,-29.99328 z m -49.3354,27.88667 c -4.61082,1.22269 -5.87288,11.56336 -2.81742,23.09301 3.05639,11.5292 9.27482,19.8884 13.88654,18.66526 4.61082,-1.22246 5.87288,-11.56335 2.81742,-23.09255 -3.05639,-11.52965 -9.27483,-19.88818 -13.88654,-18.66572 z m -110.73294,65.2498 c 7.52418,1.99866 14.25925,5.57665 19.25861,12.62877 -2.84139,0.31568 -5.68278,0.63137 -8.5244,0.94705 26.86968,6.71177 10.88378,22.8262 -4.42005,23.6789 37.11079,5.54565 25.57888,-41.8316 -6.31416,-37.25472 z"
       style="fill:#fdd5a5;fill-rule:evenodd"
       id="path39"
       inkscape:connector-curvature="0" />
    <path
       d="m 302.39219,264.21118 c -0.72144,6.54453 0.30845,14.63468 4.0195,19.63382 3.23357,4.56058 10.9888,1.62278 15.61432,-6.02925 -4.07132,-9.8951 -10.61609,-14.42942 -19.63382,-13.60457 z"
       style="fill:#e40044;fill-rule:evenodd"
       id="path41"
       inkscape:connector-curvature="0" />
    <path
       d="m 318.62498,266.37549 c 2.57595,2.47322 4.53433,5.35874 5.87468,8.65748 2.75699,-3.04054 5.12702,-6.59658 6.64774,-11.2857 -0.51596,-0.2573 -1.03125,-0.72121 -1.54607,-1.39127 -3.24647,2.37069 -6.9057,3.71105 -10.97635,4.01949 z"
       style="fill:#ea4e6b;fill-rule:evenodd"
       id="path43"
       inkscape:connector-curvature="0" />
    <path
       d="m 231.47996,274.63243 c -1.89434,-2.21003 -3.78868,-4.42005 -5.68301,-6.63008 -5.41938,3.21095 -10.26012,4.68413 -14.83858,5.36734 6.84053,1.52704 13.68196,2.2632 20.52159,1.26274 z"
       style="fill:#a65b45;fill-rule:evenodd"
       id="path45"
       inkscape:connector-curvature="0" />
    <path
       d="m 224.47492,163.72276 c -4.98535,6.01567 -9.28839,13.46222 -12.21308,20.71597 -1.39173,2.26683 -0.92759,4.53434 0.15457,6.80229 6.02428,14.6039 14.87025,21.95134 23.80811,29.06432 6.13245,4.43159 10.92452,1.23604 9.27572,-5.87469 -0.82441,-3.29783 0.41208,-5.15348 3.71037,-5.56556 6.62307,-0.3347 4.76765,-10.1266 -2.16431,-11.44003 -8.85775,-2.70267 -16.18866,-15.74716 -22.57138,-33.7023 z"
       style="fill:#a65b45;fill-rule:evenodd"
       id="path47"
       inkscape:connector-curvature="0" />
    <path
       d="m 285.07723,208.86509 c -5.66898,17.21175 -0.30957,27.10616 15.45977,27.82761 0.87577,22.85494 14.78924,26.61624 30.30127,17.31495 7.62623,8.03877 21.33354,7.62601 26.28154,-2.16432 16.07778,4.43113 23.08554,-1.03124 21.02533,-16.38735 -17.00582,2.78233 -31.53799,-1.03147 -43.59672,-11.44026 -16.38735,-0.0507 -33.08428,-4.37977 -49.47119,-15.15063 z"
       style="fill:#a65b45;fill-rule:evenodd"
       id="path49"
       inkscape:connector-curvature="0" />
    <path
       d="m 227.83362,155.91638 c 51.45266,-55.59003 123.35131,-81.111221 176.96939,-61.25856 4.0444,3.00477 5.04328,5.65179 -9.82448,4.14871 -21.59763,-0.54356 -58.16283,17.53514 -79.60002,29.66786 -35.49549,21.32381 -74.10755,36.42218 -87.54489,27.44199 z"
       style="fill:#ed3237;fill-opacity:1;fill-rule:evenodd"
       id="path51"
       inkscape:connector-curvature="0" />
    <path
       d="m 157.99813,209.79268 c -12.07932,-16.57178 -11.16032,-39.81483 18.55167,-51.63549 -1.03123,16.69693 3.09123,16.90331 4.9471,0.61824 17.21131,-67.197751 48.95521,-108.733131 95.85046,-123.987182 44.41977,-12.020029 62.43827,14.594172 67.09547,48.852713 -1.49763,0.341936 -2.98463,0.695871 -4.46575,1.053871 0.0717,-0.978293 0.10928,-1.967663 0.10928,-2.965413 0,-20.39689 -15.26898,-36.938808 -34.09741,-36.938808 -18.82819,0 -34.09741,16.541458 -34.09741,36.938808 0,9.358324 3.2141,17.904681 8.51106,24.414591 -36.1142,18.52224 -63.54692,45.723 -79.42646,84.47854 -18.03684,-4.32817 -32.36306,2.06202 -42.97802,19.17013 z"
       style="fill:#ed3237;fill-opacity:1;fill-rule:evenodd"
       id="path53"
       inkscape:connector-curvature="0" />
    <path
       d="m 305.98896,49.842033 c -16.25338,0 -29.43455,14.279388 -29.43455,31.887386 0,8.628064 3.16727,16.454121 8.30739,22.195291 14.8551,-7.65271 31.27164,-14.003528 50.32659,-18.155419 0.15411,-1.322939 0.23512,-2.670993 0.23512,-4.039872 0,-17.607998 -13.18071,-31.887386 -29.43455,-31.887386 z"
       style="fill:#ffffff;fill-rule:evenodd"
       id="path55"
       inkscape:connector-curvature="0" />
    <path
       d="m 288.30877,94.35819 1.57865,-34.413089 14.52311,10.734201 6.62986,-15.785847 18.94315,26.520285 -9.15578,6.945757 -6.31438,-13.260143 -5.36711,12.628773 -9.78737,-7.261448 0.31568,15.154251 -11.36581,-1.26274 z"
       style="fill:#ed3237;fill-opacity:1;fill-rule:evenodd"
       id="path57"
       inkscape:connector-curvature="0" />
  </g>
</svg>
