<?xml version="1.0" encoding="UTF-8" standalone="no"?>
<svg
   xmlns:dc="http://purl.org/dc/elements/1.1/"
   xmlns:cc="http://creativecommons.org/ns#"
   xmlns:rdf="http://www.w3.org/1999/02/22-rdf-syntax-ns#"
   xmlns:svg="http://www.w3.org/2000/svg"
   xmlns="http://www.w3.org/2000/svg"
   xmlns:sodipodi="http://sodipodi.sourceforge.net/DTD/sodipodi-0.dtd"
   xmlns:inkscape="http://www.inkscape.org/namespaces/inkscape"
   version="1.1"
   width="595.2756"
   height="538.5827"
   id="svg2"
   inkscape:version="0.91 r13725"
   sodipodi:docname="mario.svg">
  <metadata
     id="metadata63">
    <rdf:RDF>
      <cc:Work
         rdf:about="">
        <dc:format>image/svg+xml</dc:format>
        <dc:type
           rdf:resource="http://purl.org/dc/dcmitype/StillImage" />
      </cc:Work>
    </rdf:RDF>
  </metadata>
  <defs
     id="defs61" />
  <sodipodi:namedview
     pagecolor="#ffffff"
     bordercolor="#666666"
     borderopacity="1"
     objecttolerance="10"
     gridtolerance="10"
     guidetolerance="10"
     inkscape:pageopacity="0"
     inkscape:pageshadow="2"
     inkscape:window-width="1446"
     inkscape:window-height="856"
     id="namedview59"
     showgrid="false"
     inkscape:zoom="0.61969016"
     inkscape:cx="330.5094"
     inkscape:cy="282.91059"
     inkscape:window-x="0"
     inkscape:window-y="0"
     inkscape:window-maximized="0"
     inkscape:current-layer="Layer1000" />
  <path
     d="  M-28.3465,-25.6468 L623.6221,-25.6468 L623.6221,564.2295 L-28.3465,564.2295 L-28.3465,-25.6468 Z"
     style="fill: none; "
     id="path4" />
  <path
     d="  M85.0394,127.5591 L510.2362,127.5591 L510.2362,411.0236 L85.0394,411.0236 L85.0394,127.5591 Z"
     style="fill: none; "
     id="path6" />
  <g
     id="Layer1000">
    <path
       d="M 367.26131,66.890122 C 359.72129,39.446636 347.94875,15.178062 306.54543,13.131277 268.7504,12.595892 198.54859,58.13381 183.21606,141.52028 c -37.60488,15.95632 -45.77388,45.7077 -21.50372,75.26256 -3.45051,30.99169 12.9385,50.17345 44.90462,60.08369 -16.12768,6.32352 -28.77695,14.96739 -39.84501,24.66594 -18.34082,-0.21149 -28.24881,7.58874 -29.72553,23.4009 -38.546437,21.50326 -32.07651,88.64917 22.76851,101.1935 0.10592,2.74038 0.21103,5.48121 0.31619,8.22181 -9.26311,17.45797 -11.50257,35.45699 -9.80304,53.75907 1.23873,16.79974 10.04014,24.41501 23.0847,26.87954 24.51724,22.244 75.22313,15.21352 76.84378,-31.62296 7.98519,-5.84999 12.88705,-17.86709 13.28168,-38.89619 44.90439,11.7 83.48437,1.89697 115.73971,-29.40934 11.85845,13.36078 25.77228,19.52674 42.69101,15.17909 16.76824,8.93264 32.79642,11.19748 43.63961,-33.20417 24.83841,-26.75533 36.965,-74.98285 4.74343,-84.7494 -21.12203,-30.26658 -63.20692,-24.86426 -76.52736,2.52981 -5.27109,-6.85187 -10.54174,-9.48729 -15.81147,-7.90586 -3.16243,-3.26783 -6.32464,-6.53542 -9.48685,-9.80303 18.55208,-18.73682 34.67953,-40.50437 46.48562,-67.67313 9.71668,-9.85541 20.76002,-18.09875 18.34129,-42.691 1.44816,-3.16268 2.55473,-6.32488 3.1622,-9.48685 11.07893,-3.44621 20.34433,-9.50408 20.8711,-28.14432 37.84264,-39.00318 26.98516,-90.44255 -24.0333,-98.031293 -15.27157,-17.313373 -35.53678,-14.625349 -49.01543,3.794819 -5.69224,1.05354 -11.3847,4.216653 -17.07649,12.016656 z"
       style="fill:#1b1918;fill-rule:evenodd"
       id="path9"
       inkscape:connector-curvature="0" />
    <path
       d="m 180.05362,424.86184 c -2.21361,0.26406 -4.42631,0.47464 -6.64084,0.3162 0,3.47863 0,6.95702 0,10.43565 -16.51912,28.04369 -12.2229,65.73969 -2.84599,65.14334 -0.79039,-38.09016 8.79527,-64.02021 9.48683,-75.89519 z"
       style="fill:#fffcdb;fill-rule:evenodd"
       id="path11"
       inkscape:connector-curvature="0" />
    <path
       d="m 468.45458,328.72819 c -1.76503,17.28661 -8.03664,34.57391 -17.39246,51.86165 -4.01084,4.84837 -5.8006,9.69696 -7.27324,14.54647 -2.68757,8.27418 -7.11479,14.80984 -12.33307,20.55489 3.16267,4.00563 6.74691,3.37277 10.75186,-1.89742 5.84841,-9.16951 6.95772,-18.49677 9.48684,-24.66591 23.00628,-27.14339 27.38046,-53.70693 16.76007,-60.39968 z"
       style="fill:#fffcdb;fill-rule:evenodd"
       id="path13"
       inkscape:connector-curvature="0" />
    <path
       d="m 236.97489,409.68276 c -4.00562,-4.84814 -9.6974,-8.43193 -17.07626,-10.75163 -2.63522,1.89763 -5.69179,3.3739 -9.17064,4.42722 -3.79437,10.54039 -12.22699,17.70798 -25.29833,21.50349 0.21126,5.05962 -0.84274,10.11946 -3.16242,15.17908 -4.24226,18.23567 -5.24367,36.47132 -4.42723,54.70766 9.97417,31.86549 65.29586,25.43658 57.8701,-22.45231 6.53497,0.73779 10.11854,-2.3197 10.75163,-9.17064 2.66127,-13.07155 4.29462,-26.1422 4.42722,-39.21238 -0.47486,-10.49052 -10.27836,-12.91582 -13.28167,-4.42722 -5.00703,13.28167 -5.89035,26.56289 -6.64083,39.84477 -3.93944,-13.24811 -5.2643,-27.94871 6.00843,-49.64804 z"
       style="fill:#d19360;fill-rule:evenodd"
       id="path15"
       inkscape:connector-curvature="0" />
    <path
       d="m 396.56276,368.14411 c 5.89579,-7.26439 7.58014,-17.89769 5.05351,-31.90015 5.05348,-34.53244 46.63973,-39.05961 57.48362,-10.73872 2.73742,6.52727 1.57939,12.42305 -0.63172,19.58228 -2.16625,11.71088 -7.82698,24.81892 -14.21303,38.21731 -5.05418,6.10591 -6.10659,14.73868 -10.42275,21.16169 -9.00087,17.69143 -37.74268,11.2682 -45.48171,-3.7903 5.13624,-10.84433 8.97979,-21.68845 8.21208,-32.53211 z"
       style="fill:#d19360;fill-rule:evenodd"
       id="path17"
       inkscape:connector-curvature="0" />
    <path
       d="m 282.1957,296.15642 c 19.89826,44.95539 -15.39984,84.85252 -57.23745,63.2459 4.7391,10.64624 6.31919,21.29224 0.9486,31.93915 11.12178,4.63711 15.65393,9.27558 18.34128,13.9143 14.67838,1.35387 16.03859,10.84728 15.49527,21.50349 55.802,23.09196 123.97063,-10.93751 123.64558,-62.61351 -12.14426,-10.72761 -18.62644,-24.57481 -13.91407,-44.58821 -6.7945,-9.36829 -14.92452,-18.35442 -24.6659,-26.87952 -1.06806,0.88943 -2.13587,1.40849 -3.20347,1.87429 5.79062,6.0533 10.94952,12.31766 15.47647,18.7928 1.26344,2.00031 0.84229,3.36893 -1.26344,4.10604 -11.00254,2.52981 -22.00418,3.94963 -33.00561,5.21148 -3.53666,-6.19521 -6.64514,-12.23084 -17.05564,-21.00392 -7.8544,-0.15277 -15.70812,-2.4013 -23.56162,-5.50229 z m 37.93242,28.55911 c -13.86511,0 -25.1095,11.88066 -25.1095,26.53093 0,14.65028 11.24439,26.53115 25.1095,26.53115 13.86534,0 25.10973,-11.88087 25.10973,-26.53115 0,-14.65027 -11.24439,-26.53093 -25.10973,-26.53093 z"
       style="fill:#008bd0;fill-rule:evenodd"
       id="path19"
       inkscape:connector-curvature="0" />
    <path
       d="m 320.36499,330.40075 c -10.24617,0 -18.55618,9.22868 -18.55618,20.60907 0,11.37994 8.31001,20.60861 18.55618,20.60861 10.24639,0 18.55637,-9.22867 18.55637,-20.60861 0,-11.38039 -8.30998,-20.60907 -18.55637,-20.60907 z"
       style="fill:#ffcb00;fill-rule:evenodd"
       id="path21"
       inkscape:connector-curvature="0" />
    <path
       d="m 376.26943,322.3793 c -3.38252,1.27181 -2.35958,9.915 0.87267,20.00819 3.23246,10.09316 8.08513,17.50399 10.8355,16.54926 2.75034,-0.95494 3.78212,-10.70653 0.54943,-20.79969 -3.23247,-10.09318 -8.87507,-17.02958 -12.2576,-15.75776 z"
       style="fill:#ffcb00;fill-rule:evenodd"
       id="path23"
       inkscape:connector-curvature="0" />
    <path
       d="m 223.37704,348.65068 c 3.74178,-10.17204 7.74695,-20.08048 12.33307,-29.40934 9.56662,-6.00684 20.5821,-10.22167 29.40911,-16.12789 4.3216,-2.95095 5.69179,-7.16716 4.11102,-12.64904 16.27796,11.4672 12.99358,34.30485 10.43565,44.90461 -8.67038,26.95887 -37.28934,31.22788 -56.28885,13.28166 z"
       style="fill:#e30016;fill-rule:evenodd"
       id="path25"
       inkscape:connector-curvature="0" />
    <path
       d="m 179.10526,307.85619 c 23.64003,-21.65966 51.09666,-29.14459 77.15973,-20.55422 5.90259,1.89788 8.22115,8.74995 1.26481,12.01688 -5.82349,3.16559 -9.77969,6.27454 -18.97368,9.80303 -7.69597,3.89546 -15.39034,10.01112 -23.08472,16.44388 -9.41158,-10.23983 -21.9022,-15.47216 -36.36614,-17.70957 z"
       style="fill:#e30016;fill-rule:evenodd"
       id="path27"
       inkscape:connector-curvature="0" />
    <path
       d="m 348.87628,312.78729 c -3.83019,-6.01275 -8.17331,-11.34029 -13.26739,-15.66551 -6.89606,3.44395 -13.79349,4.57773 -20.69089,5.06394 4.21278,5.01155 7.84533,10.02198 11.21402,15.03219 7.21362,-1.29267 14.69017,-2.71771 22.74426,-4.43062 z"
       style="fill:#e30016;fill-rule:evenodd"
       id="path29"
       inkscape:connector-curvature="0" />
    <path
       d="m 352.40658,286.4411 c 0.72194,1.34163 2.06424,2.47676 4.02604,3.40655 10.46444,-9.2901 20.19427,-20.54266 29.42136,-33.13753 -3.61351,0 -7.22654,0 -10.83937,0 -7.3172,12.98156 -14.87898,22.5305 -22.60803,29.73098 z"
       style="fill:#e30016;fill-rule:evenodd"
       id="path31"
       inkscape:connector-curvature="0" />
    <path
       d="m 150.17441,324.22412 c 6.37427,-0.51611 11.07122,0.30895 13.3168,3.09692 -32.55523,5.37288 -40.86228,28.98935 -37.47319,54.81624 5.52067,23.54302 56.10437,50.48557 74.63697,21.3693 -2.27118,-0.82596 -4.54237,-1.65169 -6.81332,-2.47767 -3.71618,7.22609 -8.36169,6.81287 -7.43281,-3.0967 1.44453,-6.55605 5.52201,-10.68522 9.91048,-15.48508 4.12893,-2.58126 6.81242,-1.23962 4.33565,4.02626 -1.75508,1.75439 -3.09761,3.71549 -4.02602,5.884 14.78172,6.50915 25.23144,-5.6009 23.22726,-21.6787 -1.58755,-10.68545 -6.77568,-20.90579 -18.27214,-30.35023 4.33587,0.20626 8.67152,2.06446 13.00739,5.57437 5.98714,-23.46006 -53.16496,-45.5003 -64.41707,-21.67871 z m 18.58178,34.06665 c 3.32017,-5.80265 6.35885,-2.4387 5.5746,1.23872 -1.3421,4.95513 -2.68418,9.91047 -4.02603,14.86559 -1.61612,8.54324 -14.68563,7.6835 -9.91026,-3.71639 2.78732,-4.12962 5.57438,-8.25901 8.36169,-12.38792 z m -21.05946,-8.05229 c 3.32019,-5.80263 6.35887,-2.43869 5.5746,1.23894 -1.34209,4.95515 -2.68417,9.91049 -4.02602,14.86539 -1.6159,8.54323 -14.68563,7.68373 -9.91025,-3.71617 2.7873,-4.12939 5.5746,-8.25877 8.36167,-12.38816 z"
       style="fill:#ffffff;fill-rule:evenodd"
       id="path33"
       inkscape:connector-curvature="0" />
    <path
       d="m 400.40972,59.742456 c 7.22563,-8.568845 18.78782,-6.606836 26.3242,4.955362 40.49032,2.196152 43.24656,31.225611 32.8279,54.196982 -10.52972,24.77562 -26.32419,29.1115 -46.45454,18.58177 6.2589,5.68023 10.37446,12.96819 30.35022,8.36191 0,10.52972 -6.19385,15.79447 -18.58178,16.41394 -11.25278,-13.83337 -25.39465,-19.51177 -42.42853,-17.6529 -0.92911,-5.05849 -1.85821,-10.11696 -2.78731,-15.175 16.2077,-2.83921 31.0724,-9.03351 43.97712,-20.13036 13.21322,6.39989 23.53622,5.36745 30.9697,-3.09691 -8.46527,2.16781 -16.93075,1.65147 -25.39511,-2.78731 3.30387,-8.105315 0.92935,-13.369616 -4.02624,-17.343055 0.69337,-9.564581 1.93707,-20.836188 -24.77563,-26.324429 z"
       style="fill:#ffffff;fill-rule:evenodd"
       id="path35"
       inkscape:connector-curvature="0" />
    <path
       d="m 379.96974,74.608064 c 4.12849,-6.399887 11.97427,-8.670849 23.5369,-6.813322 9.03352,1.754837 12.95618,6.915775 14.55576,13.626645 -8.7699,-5.217148 -22.70821,-6.558325 -38.09266,-6.813323 z"
       style="fill:#ffffff;fill-rule:evenodd"
       id="path37"
       inkscape:connector-curvature="0" />
    <path
       d="m 355.24466,116.85436 c -40.48239,19.08611 -81.55681,49.00907 -112.57752,43.63982 7.37952,19.87174 12.43937,26.40649 16.44387,26.87932 14.01968,5.37558 16.33892,17.07603 4.11102,23.71733 0.95087,13.07222 -8.32541,17.07761 -19.9225,10.75185 -7.06243,-4.84926 -13.59786,-10.75185 -18.97368,-18.97391 -11.38404,-18.97368 -35.62836,-12.64905 -45.22081,1.89741 -12.81067,18.28939 -4.58794,38.52785 11.38424,50.59665 14.9293,8.0772 31.76847,8.89365 50.91283,0.94882 37.05634,43.88598 91.76559,56.20046 123.01319,6.0082 -5.48167,2.52958 -10.96243,2.95073 -16.44386,1.26502 -22.45618,41.54249 -44.06392,28.3635 -40.7936,-12.96547 -1.68618,-3.90045 -2.52914,-7.80068 -2.52981,-11.70046 -16.61795,-2.16215 -26.21677,-29.88579 -10.75187,-43.3234 18.10465,11.64741 34.70673,16.28521 50.28044,16.12768 25.74643,24.77132 74.4978,13.59741 76.52736,-21.5035 2.55564,-41.4269 -52.41563,-50.91419 -76.52736,-12.33307 2.03455,-6.39377 5.86383,-12.40402 11.48763,-18.02848 -1.16621,-2.49287 -2.19866,-5.32754 -3.00899,-8.38526 -3.06044,-11.54835 -1.79633,-21.90582 2.82176,-23.13048 4.61943,-1.22467 10.84795,7.14765 13.90908,18.69601 0.15638,0.58979 0.3001,1.17571 0.43382,1.75779 1.01637,-0.63965 2.06085,-1.27251 3.13365,-1.89991 -3.21456,-11.62724 -5.89194,-23.57747 -17.70889,-30.04196 z m -49.41548,27.93194 c -4.61831,1.22467 -5.88241,11.58212 -2.82198,23.1305 3.06133,11.5479 9.28987,19.92067 13.90906,18.69556 4.61831,-1.22446 5.88243,-11.58214 2.82199,-23.13005 -3.06133,-11.54836 -9.28986,-19.92046 -13.90907,-18.69601 z m -110.91266,65.35571 c 7.53638,2.0019 14.28237,5.58569 19.28987,12.64927 -2.84601,0.31619 -5.69201,0.63239 -8.53825,0.94858 26.9133,6.72267 10.90145,22.86327 -4.42723,23.71733 37.17104,5.55465 25.62041,-41.89949 -6.32439,-37.31518 z"
       style="fill:#fdd5a5;fill-rule:evenodd"
       id="path39"
       inkscape:connector-curvature="0" />
    <path
       d="m 313.69446,260.73614 c -0.72262,6.55515 0.30893,14.65844 4.02601,19.6657 3.23883,4.56797 11.00663,1.62542 15.63968,-6.03906 -4.07793,-9.91115 -10.63332,-14.45284 -19.66569,-13.62664 z"
       style="fill:#e40044;fill-rule:evenodd"
       id="path41"
       inkscape:connector-curvature="0" />
    <path
       d="m 329.9536,262.90396 c 2.58013,2.47724 4.54169,5.36744 5.88422,8.67152 2.76146,-3.04547 5.13533,-6.60728 6.65851,-11.304 -0.5168,-0.25773 -1.0329,-0.72238 -1.54857,-1.39354 -3.25174,2.37454 -6.91691,3.71709 -10.99416,4.02602 z"
       style="fill:#ea4e6b;fill-rule:evenodd"
       id="path43"
       inkscape:connector-curvature="0" />
    <path
       d="m 242.66714,271.1743 c -1.89742,-2.21362 -3.79483,-4.42723 -5.69225,-6.64083 -5.42817,3.21614 -10.27677,4.69174 -14.86266,5.37603 6.85164,1.52953 13.70418,2.26688 20.55491,1.2648 z"
       style="fill:#a65b45;fill-rule:evenodd"
       id="path45"
       inkscape:connector-curvature="0" />
    <path
       d="m 235.65071,160.0846 c -4.99342,6.02545 -9.30346,13.48408 -12.23288,20.7496 -1.394,2.27051 -0.9291,4.54169 0.15482,6.81332 6.03405,14.62761 14.89438,21.98698 23.84675,29.11151 6.1424,4.43879 10.94225,1.23806 9.29077,-5.88422 -0.82574,-3.30319 0.41275,-5.16184 3.7164,-5.57459 6.63381,-0.33525 4.77539,-10.14305 -2.16782,-11.45862 -8.87214,-2.70706 -16.21495,-15.77271 -22.60804,-33.757 z"
       style="fill:#a65b45;fill-rule:evenodd"
       id="path47"
       inkscape:connector-curvature="0" />
    <path
       d="m 296.35139,205.30022 c -5.67818,17.23968 -0.31006,27.15016 15.48486,27.87277 0.87719,22.89205 14.81326,26.65944 30.35046,17.34304 7.63861,8.05184 21.36817,7.6384 26.3242,-2.16782 16.10387,4.43834 23.12302,-1.03291 21.05946,-16.41394 -17.03344,2.78684 -31.58918,-1.03316 -43.66749,-11.45884 -16.41394,-0.0507 -33.13797,-4.38688 -49.55149,-15.17521 z"
       style="fill:#a65b45;fill-rule:evenodd"
       id="path49"
       inkscape:connector-curvature="0" />
    <path
       d="M 239.01489,152.26556 C 290.55105,96.58528 362.5664,71.022671 416.27152,90.907546 c 4.05095,3.009657 5.05146,5.660974 -9.84044,4.155447 -21.63269,-0.544439 -58.25723,17.563607 -79.72921,29.716037 -35.5531,21.35841 -74.22785,36.48128 -87.68698,27.48653 z"
       style="fill:#e30016;fill-rule:evenodd"
       id="path51"
       inkscape:connector-curvature="0" />
    <path
       d="M 169.06604,206.22932 C 156.9671,189.63061 157.88759,166.34986 187.6478,154.51 c -1.0329,16.72403 3.09626,16.93074 4.95514,0.61925 17.23924,-67.306842 49.03468,-108.909629 96.00603,-124.188449 44.49187,-12.039539 62.53963,14.617861 67.2044,48.932011 -1.50008,0.342488 -2.98949,0.697001 -4.47301,1.055585 0.0719,-0.979879 0.10949,-1.970855 0.10949,-2.970231 0,-20.430002 -15.29378,-36.998758 -34.15277,-36.998758 -18.85875,0 -34.15276,16.568308 -34.15276,36.998758 0,9.373519 3.21932,17.933741 8.52488,24.454224 -36.17281,18.55232 -63.65005,45.79723 -79.55538,84.61566 -18.06611,-4.3352 -32.4156,2.06538 -43.04777,19.20127 z"
       style="fill:#ed0016;fill-opacity:1;fill-rule:evenodd"
       id="path53"
       inkscape:connector-curvature="0" />
    <path
       d="m 317.29707,46.019027 c -16.27977,0 -29.48232,14.302567 -29.48232,31.939139 0,8.64206 3.1724,16.480818 8.32087,22.231324 14.8792,-7.665137 31.32239,-14.026269 50.40827,-18.184893 0.15436,-1.325081 0.23551,-2.675329 0.23551,-4.046431 0,-17.636572 -13.20212,-31.939139 -29.48233,-31.939139 z"
       style="fill:#ffffff;fill-rule:evenodd"
       id="path55"
       inkscape:connector-curvature="0" />
    <path
       d="m 299.58819,90.607439 1.58121,-34.468949 14.54667,10.751632 6.64061,-15.811475 18.97392,26.56333 -9.17064,6.957036 -6.32465,-13.28168 -5.3758,12.649272 -9.80328,-7.273225 0.31621,15.178859 -11.38425,-1.2648 z"
       style="fill:#e30016;fill-rule:evenodd"
       id="path57"
       inkscape:connector-curvature="0" />
  </g>
</svg>
