<svg xmlns="http://www.w3.org/2000/svg" width="705" height="763" viewBox="0 0 705 763">
  <g fill="none" transform="matrix(-1 0 0 1 705 0)">
    <polygon fill="#EC1C24" points="343.3 141.7 329.4 123.2 314.9 95.1 308.4 59.3 322 33 349.5 23.7 382.8 31.1 403.9 42.9 425.2 23.1 458.5 8.9 500.3 8.9 541.6 33.9 571.3 85.5 581.8 137.7 578.4 202 601.6 225.5 606.8 256.7 594.5 283.9 579.7 293.1 567 267.5 531.5 259.8 518.8 210 498.7 205.7 481.4 191.8 455.1 136.2 380.7 107.4 355.7 122.6"/>
    <polygon fill="#FCD0AF" points="343.3 141.7 334 156.6 311.8 149.2 275 156.9 261.1 176 256.5 201.7 266.1 226.4 280.6 241.5 272.9 268.7 277.8 301.5 313 338.9 325.4 356.5 357.5 369.8 383.5 366.4 406.3 354.3 446.2 353.1 482 337 501.8 347.2 542.6 347.5 570.1 326.5 579.7 293.1 567 267.5 531.5 259.8 522.5 224.6 518.8 210 498.7 205.7 481.4 191.8 455.1 136.2 380.7 107.4 355.7 122.6"/>
    <polygon fill="#874C2F" points="495.9 362.3 501.8 347.2 482 337 446.2 353.1"/>
    <polygon fill="#EC1C24" points="575.3 396.3 495.9 362.3 447.1 353.1 408.8 379 375.1 424.1 389.3 471.7 433.2 455.3 444.3 439.9 483.9 453.8 519.4 473.3 524.7 444.8 545.7 414.2"/>
    <polygon fill="#EC1C24" points="334 379 286.1 355.5 313 338.9 325.4 356.5 357.5 369.8"/>
    <polygon fill="#EC1C24" points="288.6 325 259.3 321.2 229.9 325.6 224.4 337.3 190.1 354.3 159.2 359.3 127.3 351.5 127 375 146.8 398.2 195.9 400 198.4 379.3 222.5 350.6 252.2 339.2"/>
    <polygon fill="#0066B2" points="149.3 444.5 164.7 441.7 174.6 448.5 187.6 400 195.9 400 198.4 379.3 222.5 350.6 288.6 325 299.1 323.7 313 338.9 286.1 355.5 334 379 357.5 369.8 383.5 366.4 406.3 354.3 447.1 353.1 408.8 379 375.1 424.1 389.3 471.7 433.2 455.3 410.3 499.5 403.9 546.2 394.6 567.5 413.1 565.3 434.6 579.7 447.7 615.4 450.8 657.7 435.4 688.9 417.5 697.6 396.2 697.3 388.1 689.8 345.5 691.4 301.3 672.8 271 611.7 226.2 581.4 199.6 593.4 188.2 610.7 168.7 616 174.9 574.6 168.4 502.3"/>
    <polygon fill="#874C2F" points="24.2 437.4 44.2 414.6 81.9 402.2 124.9 413.3 149.3 444.5 168.4 502.3 174.9 574.6 168.7 616 145.3 635.1 128 637.9 135.4 622.5 127.3 548.9 108.5 481 84.1 446.7 48.9 432.5"/>
    <polygon fill="#FAB16A" points="7.8 457.5 24.2 437.4 54.6 431.7 84.1 446.7 108.5 481 124.7 551.5 135.4 622.5 124.9 645.3 98.1 650.6 70.5 638.8 46.4 596 45.2 581.1 25.8 552.2 7.2 505.4"/>
    <polygon fill="#874C2F" points="495 737.5 471.1 754.8 442 757.5 406.4 733.9 396.2 697.3 417.5 697.6 435.4 688.9 450.8 657.7 447.7 615.4 434.5 579.7 413.1 565.3 394.6 567.5 410.6 550.1 435.7 544.7 451 548.9 464.2 566.8 489.3 615.9 505.8 660.5 506.7 709"/>
    <polygon fill="#FAB16A" points="470.2 545.9 451 548.9 464.2 566.8 489.3 615.9 505.8 660.5 506.7 709 495 737.5 504.3 739.8 522.6 724.3 527.6 700.3 523.1 659 499.5 607.6 506.1 601.6 492.9 565.3"/>
    <polygon fill="#FFF" points="115.8 321.7 102.3 299.3 104.6 265.4 118.4 239.6 150.6 211.2 196.2 196.4 227.6 209.3 247.5 236.2 245.6 258.3 258.1 270.1 252.9 297 233.1 312.2 229.9 325.6 224.4 337.3 190.1 354.3 159.2 359.2 127.3 351.5 113.9 333.5"/>
    <polygon fill="#FFF" points="533.5 496.8 535.5 534.2 556.3 555.2 583.2 552 595.2 573.5 628.5 583.6 649.8 565.8 671.5 555.7 677.7 534.2 692.3 524.7 694.9 496.6 701.6 476.6 683.9 440.3 642.9 416.9 618 415.4 611.1 401.4 597.1 395.8 575.3 396.3 545.7 414.2 524.7 444.8 519.4 473.2"/>
    <polygon fill="#FFF" points="420.1 56.5 430.7 43.5 451.7 30.6 476.8 30 494.1 38 506.8 55.6 509.6 81 499.6 109.2 479.4 122.7 444 76.1"/>
    <polygon fill="#FFF" points="346.6 172.8 339.7 165.9 347.5 150.4 359.9 137.7 371.7 132.8 380 137.7 381.2 146.9 375.1 163 359.6 185.8"/>
    <polygon fill="#FFF" points="391.3 215.7 393 197 408.5 171.4 428.1 161.9 444.8 165.6 450.9 179.2 444.5 204.5 428.1 226.7 415.7 231 401.3 232.2"/>
    <polygon fill="#2BC2E8" points="351.2 162.2 360.7 150.4 369.7 145.2 375.7 147.2 376.9 155 375.1 163 359.6 185.8 346.6 172.8"/>
    <polygon fill="#FFF" points="363.1 160.6 367.1 157.5 371 158.9 371.1 163.4 368 169.4 364.2 170.5 361.2 167.7"/>
    <polygon fill="#2BC2E8" points="415 231 406.6 226.6 404.5 215.9 408.5 201.8 415.9 190.4 426.7 180.8 436.8 177.4 444 179.9 447.1 189 444.5 204.5 428.1 226.7"/>
    <polygon fill="#FFF" points="431 194.6 427.3 200.6 428.6 208.5 436.6 206.2 440 199.2 440.2 193.3"/>
    <polygon fill="#874C2F" points="514.9 268.3 495.5 286.9 474.8 295.2 463.5 283.6 467.4 266 462.3 255.1 469.5 241 493.8 238.7 522.5 224.6 531.5 259.8"/>
    <polygon fill="#FFF" points="388.6 283.4 387.7 299.9 362 305.4 340 308.2 322.8 303.3 320.1 291.3 341.6 292 370.1 288"/>
    <polygon fill="#EC1C24" points="381 322.6 369.4 336.5 353.7 340.9 336 331.8 334 319.3 340 308.2 362 305.4 387.7 299.8"/>
    <polygon fill="#FFF100" points="246.6 341.3 257.3 348 256.3 359.6 246.6 375.4 225.7 387.4 211.1 387.2 203.5 373.8 222.5 350.6"/>
    <polygon fill="#FFF100" points="308.9 409.5 306.4 423.1 311.7 437.3 330.5 442.8 349.3 432.6 357.8 414.1 354.1 396.7 337.4 388.8 319.1 394.9"/>
    <path fill="#EC1C24" d="M437.1,63.9 C440.1,60.6 447.3,54.1 449.8,51.2 C450.5,57.7 451.2,64.8 451.7,69.7 C457.5,67 469.2,62.6 475.5,60 C474.1,67.4 468.6,90.5 466.5,98.9 C471.7,99.2 481.1,99.6 484.8,99.7 C485.3,93 488.5,58.5 489.1,44.8 C478.5,48.4 465.4,54.9 458.2,58 C457.9,53.3 457.2,46.6 456.4,36 C448.1,41.6 434.6,52.4 429.8,56.6 C432.3,60.6 434.5,61.6 437.1,63.9"/>
    <path fill="#0B0204" d="M443.1,211.4 C451.6,198.2 455.4,184.5 453.2,174.6 C452,169.4 449.2,165.3 445.1,162.8 C430.5,153.7 410.4,161.7 397.3,181.8 C389.5,193.9 386.2,207.5 388.5,218.1 C389.9,224.6 393.4,229.8 398.6,233.1 C410.9,241 430,231.6 443.1,211.4 Z M410.6,227.9 C408.5,226.5 407.1,224.4 406.4,221.5 C404.9,214.8 407.7,205 413.6,195.9 C422.4,182.4 434.3,175.9 441.9,180.7 C443.4,181.6 444.5,183.2 444.9,185.3 C445.5,187.8 445.2,191 444.3,194.6 C444,192.5 443,190.9 441.4,189.9 C435.1,186 425.8,191.1 419.5,200.8 C413.2,210.5 412,221.4 418,225.2 C418.6,225.6 419.3,225.8 420,226 C417.8,227.3 415.6,228.3 413.5,228.9 C412.5,228.7 411.5,228.4 410.6,227.9 Z M436.9,202.8 C435.2,205.4 432.2,206.4 430.2,205.1 C428.3,203.8 428.1,200.6 429.8,198.1 C431.5,195.5 434.5,194.5 436.5,195.8 C438.5,197 438.6,200.2 436.9,202.8 Z M401.9,227.9 C398.1,225.5 395.6,221.7 394.5,216.8 C392.5,207.8 395.5,196 402.5,185.2 C413.6,168 430.1,160.9 441.7,168.1 C444.4,169.8 446.2,172.4 447,176 C447.5,178.3 447.6,180.8 447.3,183.6 C446.6,181.3 445.3,179.4 443.3,178.2 C434.3,172.7 420.8,179.4 411.2,194.3 C404.8,204.2 402,214.5 403.6,222 C404.3,225.3 405.9,227.8 408.3,229.6 C406,229.6 403.8,229.1 401.9,227.9 Z M621.3,448.9 C626.2,453.5 626.3,458 623.6,460.7 C621,463.4 616.2,461.9 612,458.1 C607.6,454.2 604,445.6 605.3,443.7 C606.4,442.3 616.2,444.1 621.3,448.9 Z M639.5,442.1 C638,445.2 633.5,445.3 628.9,443.3 C624,441.2 618.4,435 619,433 C619.5,431.4 628.4,430 634.1,432.7 C639.5,435.2 640.9,439 639.5,442.1 Z M602.9,469.2 C604.4,475.5 602,479.2 598.4,480 C594.7,480.8 591.6,477.1 590.1,471.9 C588.6,466.4 590.3,457.6 592.4,456.8 C594.2,456.1 601.3,462.6 602.9,469.2 Z M327.6,426.3 C335.5,423.8 342.6,417.7 344.6,407.7 C345.6,402.5 347.5,405.3 347.8,408.9 C348.6,420.7 339.5,427.6 331.1,428.9 C326,429.6 322.8,427.8 327.6,426.3 Z M502.1,307.9 C510.5,289.3 531.1,285 542.8,290.6 C547,292.6 550.1,296.4 551,298.8 C553.1,304.2 549.7,302.6 546.9,300.5 C540.1,295.3 532.4,295.1 525,298 C529.2,301 532,306.8 529.7,313.9 C527.8,319.8 525.7,318.5 525.5,315.4 C525,306.3 521.4,302.5 516.2,302.8 C512.2,305.7 508.5,309.3 505.4,313.3 C500,320 498.7,315.4 502.1,307.9 Z M224.9,374.5 C232.6,371.9 238.3,368 242.2,359.8 C244.1,355.8 245.5,358.1 244.8,361.1 C242.8,370.7 235.1,375.6 227.6,377 C223.2,377.8 220.7,375.9 224.9,374.5 Z M675.8,429.1 C658,416.1 638.6,411 621.5,411.2 C616.3,395.6 598.6,389.5 579.1,392.6 C558.4,381.3 533,370.6 505.9,361.6 C508,359 508.9,355.7 508.5,352.4 C538.4,357.2 571.3,343.6 580.4,313 C582,307.5 582.7,302.3 582.7,297.4 C598.9,290.8 609.5,276.3 611.4,257.9 C613.7,235.4 602.5,213.7 582.8,201.8 C584.6,195.3 586.2,187.5 587.3,178.8 C592.8,137 581.6,78.7 561.6,50 C540.9,20.4 513.8,3 485.8,1.2 C455,-0.8 423.1,13.9 403.1,37 C393.9,31.4 385.5,27.1 378.8,24.9 C315.9,3.8 294,48.9 307.7,90.2 C312.8,105.7 325.1,126.6 337.3,141.9 C335.2,145.1 333.3,148.1 331.5,151.1 C325.8,148 319.9,145.9 314.1,144.9 C263.6,135.9 236.6,189.6 259.3,225.7 C251.5,239.5 257.5,248.8 266.4,249.8 C264.9,254.5 265.8,259.7 268.1,263.6 C264.7,284 271.3,301.7 285.2,317.3 C267.6,316 248.1,316.8 232.8,319.5 C232.7,319.1 232.6,318.7 232.6,318.3 C239.4,314.1 246,308.9 250.7,304 C264.9,289.3 267.6,266 251.7,255.5 C255,233.4 242,202.6 207.6,194.5 C173.4,186.4 125.9,213.6 105.2,252.8 C92.4,277 93.1,303 110.4,321.2 C104.9,332.3 111.2,344.7 120.5,352 C117.3,367.6 120.8,381.9 130.4,391.8 C141.2,402.9 158.7,407.6 180.5,405.5 C175.1,415.5 170.9,428 169.2,438.4 C164,436.1 158.1,435.3 151.7,436.9 C149.3,432.4 146.8,428.4 144.2,424.9 C115.1,386.3 43.2,388.5 20.7,436.3 C-2,454.1 -2.1,488 4.7,512.7 C12.7,540.1 25.8,564.6 40.9,581.2 C41,599.6 52.1,624.9 67.8,641.3 C83.7,658.4 115.3,661.5 130.9,642.3 C145.4,641.8 161.5,634.5 169.6,621.2 C182.4,622.5 196.2,614.1 201.9,599.7 C209.6,595.9 217,591.7 224.2,587.1 C236,598.9 249.5,607.8 263.9,613.8 C273.2,640.5 286.2,669.8 309.4,685.2 C331.2,699.7 357.3,700.2 382,693.7 C384.3,695.6 386.8,697.1 389.4,698.5 C390.9,727.2 411.9,757.6 441.3,762 C460.8,764.9 479.2,759.5 492.4,746.2 C525.2,745.8 536.4,713.2 530.6,677.1 C525.9,648.4 516,626.5 505.1,608.3 C508.3,606.1 509.6,602.9 508.7,598.9 C502.3,570 491.9,551.7 477.7,544.5 C469.6,540.3 460.4,540.1 451,543.5 C436.1,537.2 420.9,537.7 409.6,544.2 C413.2,531.6 415.4,517 415.7,499.8 C421.2,487.3 435.7,460.5 448.5,445.9 C470,453.4 491.9,463.4 516.1,476.7 C517.8,484.1 521.8,492 528.4,497.2 C524.3,516.4 526.9,537.3 542,550.8 C556.3,563.6 569.7,563.5 579.6,560.1 C593.3,584.1 617.2,588.8 631.3,585.9 C639.1,584.3 645.6,579.6 649.6,572.8 C661.8,570.8 672.7,562.3 677.3,551.2 C678.3,548.6 679.2,545.7 679.8,542.6 C694.4,534.4 698.6,519.9 697.5,506.7 C716,476.7 695.3,443.4 675.8,429.1 Z M493.5,357.7 C485.9,355.4 478.1,353.2 470.4,351.1 C475.2,349.1 479.9,346.6 484.2,343.7 C488,345.9 492,347.8 496.1,349.3 C498.1,352.3 497,355.9 493.5,357.7 Z M373,416.3 C365.7,429 361.2,437.9 347.8,447.8 C323.5,465.8 294.6,449.5 302.5,420.2 C302.8,419.3 303.1,418.3 303.4,417.4 C303.2,419.1 303,420.8 303.1,422.4 C303.3,429.1 305.9,435.1 310.4,439.3 C321,449.3 339.4,447 351.4,434.3 C363.4,421.6 364.5,403.1 353.9,393.1 C349.4,388.9 343.3,386.7 336.6,386.9 C334.1,387 331.5,387.4 329.1,388.1 C337.5,382.4 347,377.7 356.2,373.8 C371.9,375.6 390,371.4 409.9,359.7 C414.8,360 420.7,360.1 427,359.9 C405.3,372.9 383.2,400 373,416.3 Z M317.9,402.8 C323.1,397.2 330,393.9 336.7,393.7 C341.6,393.5 345.9,395.1 349,398.1 C352.4,401.3 354.1,405.9 354.1,410.8 C354.1,417.1 351.4,423.9 346.2,429.5 C336.8,439.4 322.9,441.6 315,434.2 C311.8,431.2 310.1,427 309.9,422.2 C309.8,415.4 312.6,408.4 317.9,402.8 Z M253.1,349.2 C254.2,350.6 254.5,352.6 254.2,355 C253.3,361.4 247.6,369.3 239.6,375.3 C231.6,381.3 222.4,384.5 216,383.6 C213.6,383.3 211.8,382.4 210.8,380.9 C209.7,379.5 209.4,377.5 209.7,375.1 C210.6,368.7 216.3,360.8 224.3,354.8 C236.7,345.5 249.5,344.3 253.1,349.2 Z M203,380.1 C203.4,381.9 204.2,383.6 205.3,385.1 C207.5,388 210.9,389.9 215.1,390.5 C223.3,391.7 234.3,388 243.8,380.9 C253.3,373.8 259.9,364.2 261.1,356 C261.2,355.1 261.3,354.2 261.3,353.4 C261.3,350.2 260.4,347.4 258.7,345.1 C257.7,343.8 256.5,342.7 255.1,341.9 C269.1,335.6 284,330.9 298.5,329.8 C301.3,332.1 304.3,334.3 307.4,336.5 C307.5,336.7 307.7,337 307.8,337.2 C278.3,349.1 240.2,391.2 228.9,396.8 C208,407.1 194.8,393.7 203,380.1 Z M311.4,343.7 C319.7,357 330.8,366.5 344.2,371 C341.9,372 339.7,373.1 337.4,374.2 C328.7,368.5 309.5,358.8 294.5,353.1 C300.1,349.4 305.7,346.1 311.4,343.7 Z M484.6,13.9 C512.4,16.6 531.1,29.9 549.6,57.6 C575.8,96.9 582.7,156.2 571.6,217.3 C569.3,230 574.1,226.7 579.3,212.7 C593.9,222.6 602.1,239.4 600.3,256.7 C598.9,269.8 591.9,280.3 581.2,285.8 C577.3,271 566.4,260.7 555.6,257.2 C548.1,254.7 541.3,254.3 535.1,255.3 C525.4,198.7 506,154.9 486.2,122.7 C494.2,118.6 500.7,112.3 504.8,104.6 C512.8,89.6 514.5,71 509.3,56 C505,43.6 496.3,34.3 484.3,29.1 C462.6,19.7 436.8,28.4 421.7,49.7 C418.3,47.2 414.9,44.8 411.6,42.5 C429.3,23.6 458.3,11.3 484.6,13.9 Z M475.1,263.6 C475.1,263.6 475.1,263.6 475.1,263.6 C470.6,261.4 467.5,257.8 469.1,251.6 C470.6,245.9 476.3,245.2 487.8,243.8 C503.1,241.9 513.6,238.4 520.4,232.3 C522.4,240.5 524.2,249 525.8,257.8 C514.7,261.9 506.3,269.7 500.6,275 C490.5,284.5 483.2,290.1 475.1,286.9 C467.2,283.6 466.3,271.2 475.1,263.6 Z M429.9,56 C429,55.3 428.1,54.6 427.2,53.9 C440.4,35.1 462.8,27.3 481.5,35.5 C491.7,39.9 499,47.8 502.7,58.3 C507.3,71.5 505.7,88 498.6,101.3 C495,108.1 489.4,113.4 482.4,116.8 C460.7,83.1 439.1,63.4 429.9,56 Z M317.8,87.1 C305.7,48.1 325.9,19.2 374.7,35.9 C387.8,40.4 399.8,47.8 421.8,65.4 C441.2,81 486.4,125.8 512.7,205.6 C497.1,203.5 486.8,191.8 478.2,176.5 C486.2,160.6 485.7,143.2 474.1,134.8 C469.1,131.2 462.7,130.1 455.9,131 C454,127.4 452,123.8 449.9,120.4 C428.1,85.5 403.9,66.1 391.2,58.2 C367.7,43.6 343.2,43 362.6,51.8 C393.1,65.6 414.8,84.8 439.8,123.2 C426.1,116.4 411.2,110.8 396.7,106.9 C395.9,101.5 393.6,97.4 389.7,95.8 C382.4,92.7 374.4,96.4 367.9,105 C359.5,112.9 350.9,123.2 343.5,133.4 C332.4,119.2 322.9,103.4 317.8,87.1 Z M369.1,165.7 C367.7,168 365.6,168.9 364.2,167.9 C362.9,166.8 362.9,164.2 364.3,161.9 C365.7,159.7 367.8,158.7 369.2,159.7 C370.5,160.8 370.4,163.5 369.1,165.7 Z M374.3,158.7 C374.1,157.2 373.6,156 372.6,155.2 C368.3,151.7 361.3,156.1 356.1,164.4 C355.2,165.8 354.5,167.2 353.8,168.7 C352.9,167.7 351.9,166.7 351,165.7 C351.8,164.2 352.7,162.6 353.7,161.1 C358.8,153.1 364.9,147.6 369.7,146.8 C371.4,146.5 372.8,146.9 374,147.8 C375.8,149.4 375.8,153.5 374.3,158.7 Z M377.7,148.8 C377.3,147.5 376.6,146.5 375.6,145.6 C373.8,144.1 371.6,143.6 369.1,144 C363.5,144.9 356.8,150.7 351.2,159.5 C350.4,160.8 349.6,162.2 348.8,163.6 C347.7,162.6 346.6,161.6 345.5,160.6 C346.6,158.3 347.9,156 349.4,153.7 C355.7,143.9 363.5,137.2 369.8,136.2 C372.3,135.8 374.3,136.3 376,137.8 C378.2,139.7 378.7,143.7 377.7,148.8 Z M277.9,270.4 C280.5,270.6 283.2,269.9 286,267.8 C287.4,281 304.4,286.9 314.9,276.1 C324.6,291 349.7,292.4 354.9,279 C358.6,282.4 362.9,284.6 367.2,285.9 C351.1,289.2 329.7,290.3 317.3,288 C313.8,287.3 310.2,286.8 307.1,284.5 C304.6,282.6 303.4,287.9 308.1,291.7 C309.6,292.9 311.9,294.1 314.8,294.8 C324.6,328.7 341.7,346.9 360.6,343.4 C377.5,340.3 393.5,317.8 392.4,281.7 C394.9,279.6 396.8,276.9 397.9,273.8 C417.9,283.4 438.1,270.3 433.6,239.7 C433.4,238.2 433,237.9 431.4,238.5 C405.9,248.2 387.7,249.6 364.3,244.6 C365.7,243.7 367.2,242.8 368.5,241.8 L362.5,233.3 C343.6,246.4 320.6,248.5 296.7,239.8 C239.8,219.1 262.6,147.4 311.8,156.4 C333.8,160.4 353.5,178.5 360.1,200.3 L370.1,197.6 C368.8,193.1 367,188.8 364.8,184.6 C367.6,181.6 370.3,178.1 372.8,174.1 C379.1,164.2 383.8,152.9 383.8,144.3 C383.8,139.8 382.5,136.1 379.6,133.7 C376.7,131.3 373,130.3 369,130.9 C361.1,132.1 352,139.6 344.8,150.9 C343.5,153 342.2,155.1 341.1,157.3 C340.5,156.9 339.9,156.4 339.3,156 C345.7,145 355.3,131.5 365.2,120.3 C377.2,110.6 386.3,112.1 389.4,135.2 C389.8,138.2 390.7,138 391.7,135.5 C394.3,129.2 395.9,122.9 396.6,117.1 C411.9,121.4 427.9,127.9 441.8,135.3 C434.5,138.6 427.6,143.6 422.3,149.3 C420.1,151.6 420.7,152.4 423.8,151.8 C453.4,146.1 469.9,156.4 468,187.8 C467.8,190.7 468.5,190.8 470.3,188.7 C470.9,188 471.5,187.2 472.1,186.4 C481.2,202.2 493,213.2 515.9,215.5 C516.5,217.5 517.1,219.5 517.7,221.5 C512.3,230 500.2,234.2 487.3,234.7 C471.1,235.4 462.9,239.8 459.9,248 C457.7,254.1 459.3,262.3 464.2,266.2 C455.2,279.9 461.5,293.6 471.6,297.6 C486.1,303.4 498.7,288 506,280.4 C516.3,269.8 534.1,259.5 553.1,265.1 C565.4,268.7 579.7,283.1 571.5,310 C560.6,345.8 508.9,351.6 483.4,329 C466.4,345 436.5,350 407.2,347.6 C362.8,375.7 329.5,361 316.4,327.7 C289.4,313.2 276.9,292.6 277.9,270.4 Z M338.2,327 C336.6,321.3 338,315.6 342.2,311 C356,310.8 373.2,307.4 383.9,302.8 C380,322.2 370.1,334.6 359.4,336.5 C353,337.7 345.4,335.2 338.2,327 Z M385,294.5 C375.5,300.1 351.5,304.9 336.5,304 C328,303.5 325.6,300.7 324.5,295.8 C343.4,296.7 371.3,294.3 385.4,287.4 C385.4,289.8 385.3,292.2 385,294.5 Z M117.6,327.2 C122.3,330.2 129.8,333.5 138.8,334.4 C152.4,335.6 155.1,331.6 148,330.1 C106.9,321.5 98.2,288.9 114.7,257.1 C133.2,221.6 175.8,198.5 205.4,205.5 C229.3,211.2 241.9,231.8 240.4,251 C238.3,250.6 236.1,250.3 233.6,250.1 C230.8,249.9 227.2,250.4 223.2,251.4 C222.9,248.5 221.4,241.7 214.9,232.4 C206,219.6 198.2,219.9 201.3,224.8 C208.4,235.9 212.6,245.1 214.3,254.4 C207.6,257.1 200.6,260.9 194.5,265.7 C193.7,262.2 191.7,256.4 186.7,249.2 C177.8,236.4 170,236.7 173.2,241.6 C181,253.7 185.2,263.5 186.5,273.6 C183.1,277.8 180.6,282.4 179.6,287.4 C178.9,290.7 179.2,293.9 180.2,296.8 C176.5,299.7 171.7,300.6 167,298.6 C166.1,285.7 157.7,273.5 152.3,268.4 C142.7,259.2 139.4,262.1 143.3,267.7 C150.3,277.9 163.9,302 154.8,311.5 C146.9,319.6 135,314.6 122.5,297.6 C119,292.8 115.5,294.2 119.7,304.3 C127,321.6 149.9,333 161.7,317.3 C164.2,313.9 165.8,310.3 166.5,306.7 C171.8,308.5 177.9,308.5 183,305.4 C183.6,305.1 184.2,304.7 184.8,304.3 C189.8,309.5 197.3,312.6 203.4,311.9 C209.1,311.8 216.4,309.8 219.7,308.1 C231.6,301.8 235,291.5 228,295.2 C198.6,311 186.9,298.7 188.9,289.2 C191.7,275.8 213.6,262.7 233.4,261 C252.8,259.4 258.7,282.3 243.5,297.9 C228.7,313 210.2,319.2 195.7,323.2 C183.8,326.5 198.9,330.8 216.9,325.9 C219.4,325.2 222.2,324.1 225.1,322.7 C224.5,331.6 214.6,339.4 204.5,344.5 C186.2,353.7 151.2,357.1 131.2,347.7 C121.9,343 115.9,334.9 117.6,327.2 Z M139.1,383.5 C132.9,377.1 130.4,368.2 131.7,357.9 C155.4,367.2 186.3,364.3 209.1,352.7 C217.9,348.3 228.7,340.6 232.2,330.1 C242.9,327.9 256.5,326.8 270.1,326.8 C258.8,330.2 248,335 237.5,340.6 C231.9,342.1 225.9,345 220.2,349.3 C215.6,352.8 211.7,356.8 208.7,361 C207.4,362.2 206.1,363.4 204.9,364.7 C199.1,370.8 190.4,380.5 191.4,392 C167.5,396.7 149.1,393.8 139.1,383.5 Z M107.1,644.5 C119.3,634.8 123.6,605.7 110.8,575.6 C108.1,536.6 101.8,516.9 95,498.1 C83.7,467 62.8,450.2 44.6,449.1 C33.7,448.5 28.2,450.1 23.1,456.5 C19.3,461.7 20.3,465.2 22.2,463.1 C27.7,456.9 32.5,454.8 43.6,455.6 C56.5,456.5 77.6,472.6 88,500 C94.6,517.4 101.9,543.8 104.2,577 C116.3,611.6 109,640.2 96.8,642.2 C90.1,643.3 82.3,640.2 74.7,632.7 C61.7,619.1 50.7,593.8 51.4,582.3 C63.2,580.5 85.1,577.8 96.6,577.4 C101.8,577.1 99.9,574.8 95.3,573.6 C84.2,572 59.3,571.1 48.9,577.8 C33.2,556.8 21.4,533.4 15,509.6 C7.9,486.1 8.5,456.6 28.1,441.5 C36.4,435.1 48.7,435.3 59.3,438.5 C81.8,445.4 96.3,464.2 104.4,484.7 C114.3,509.8 119.2,528.5 123.1,569.1 C132.7,592.3 132.6,622.7 126.7,632.5 C122.6,639.6 115.2,643.5 107.1,644.5 Z M136.8,630.4 C140.8,614 138.6,585.1 129.6,566.7 C127.1,528.9 120.1,502.6 112,482.3 C103,459.8 87,438.6 61.6,430.9 C53.8,428.5 45.6,428.1 38,429.5 C60.1,401.8 110.6,401.6 135.2,431 C166.9,469.1 177.7,570.1 164.7,608.1 C160.2,621.6 149.7,628.5 136.8,630.4 Z M316.3,675.4 C298.3,662.1 287.5,641.1 279.4,618.8 C305.1,625.4 332.6,623 357.6,610.6 C368.9,605 384.3,594.3 396.5,574.8 C408.3,565.4 421.8,567.4 434.9,589.9 C442.8,603.5 457.8,660.2 430.2,685.1 C421,693.4 407,694 395.7,688.2 C413.1,675.5 410.1,672.9 400.5,676.6 C364.6,690.1 335.6,689.6 316.3,675.4 Z M443.4,751.9 C420.7,748 404.5,725.8 401.8,702.3 C414.6,704.6 428.3,701.6 437.3,693.1 C470.5,661.9 451.5,601.7 442.3,585.9 C431.1,566.5 418.6,559.6 406.8,561.3 C413.5,553.1 427.9,547.6 440.6,551 C457.8,557 467.9,577.5 481.1,607.1 C495.4,638.9 501.5,660 503.1,677.8 C508.3,735 472.9,757 443.4,751.9 Z M472.9,554.2 C483.5,559.6 492.1,575.3 497.7,599.4 C496.3,600.4 491.7,602.6 491.7,602.6 C510.8,631.3 517.9,653.7 521.3,678.3 C524.3,700.3 520.5,727.9 502.1,733.5 C510,719.6 513.8,700.8 511.3,677.2 C509.4,658.5 502.7,636.4 488.1,604 C478.8,583.4 470.3,564.4 457.9,552.9 C463.3,551.6 468.9,552.1 472.9,554.2 Z M403.6,496.7 C402.3,546 387.9,581.6 352.1,599.3 C296.6,626.8 248.3,595.9 227.2,572 C215.6,579.2 204.4,584.7 192.2,590.1 C190,601.4 182,607 174.9,608.2 C184,575.8 177.4,497.2 157.7,449.2 C165.9,447.5 178.5,456.5 184.9,468 C187.5,472.7 189.5,466.4 186.7,457.6 C202.8,444.1 222.6,438.2 241.5,441.7 C265.6,446.1 286.9,464.8 303.2,495.6 L313.7,490.1 C291,446.9 263.1,433.6 243.7,430 C222.1,426 199.5,432.2 181,446.9 C180.8,446.7 180.7,446.6 180.5,446.4 C180.7,433.4 188.4,412.5 196.3,403.2 C209.4,415.6 226.9,408.8 233.5,404.9 C245.1,398.1 264,376.6 285.2,360 C297.5,363.9 316.6,373.1 327.7,379.5 C312.7,388.5 299.8,400.5 294,418.4 C282.3,454.7 321.6,480.1 354.1,456.2 C361.9,450.5 367.9,443.3 372.9,435.9 C378.7,451.5 384,468.1 386.8,479.8 C393.6,476.4 407.5,469.7 420.3,464.5 C413.5,475.9 407.6,487.5 403.6,496.7 Z M428.9,451.1 C416.5,455.2 402.4,462 393,466.7 C390.1,455.8 384.9,440.3 379.2,425.7 C380,424.3 380.8,423 381.5,421.6 C393.1,402.8 417.7,371.1 438.6,362.4 C444.6,359.9 450,358.8 455,359.5 C493.1,368.5 532.5,382.4 562.7,397.4 C538.4,408.7 518.5,437.6 515.8,462.6 C482.3,444.8 452.2,432.8 421.8,425.2 L418.9,436.7 C424.6,438.1 430.3,439.7 436,441.5 C433.6,444.4 431.2,447.7 428.9,451.1 Z M681,527.9 C679.1,511.6 669.1,501.2 671,512.6 C674.5,533.7 668.6,554.4 654.3,559.8 C654.7,556.8 654.7,553.7 654.3,550.5 C653.2,541.1 644.8,527.5 645.6,542.8 C646.6,563.3 639.4,572.6 628.2,575.8 C617.7,578.8 595.7,569.2 588.8,555.5 C591.3,553.9 593.4,552.3 594.8,551.1 C596,552.9 597,554.7 597.7,556.6 L606.8,553.3 C602.8,542.4 592.5,533.1 578.5,527.7 L575,536.8 C579.6,538.6 583.7,540.8 587.1,543.4 C578.9,548.6 561.1,552.4 548.6,540.7 C527.4,520.9 540.6,478.9 557.6,455.9 C561,451.3 556.6,450.7 550.1,456.5 C542.4,463.4 535.5,474.6 531.3,487.3 C527.2,482.4 525.2,476.7 524.8,470.3 C523.4,445 548.4,413 574.6,403.5 C592.2,397.1 607,402.5 612.3,412.1 C598.4,415.2 593.1,424.7 599.7,422.7 C603.5,421.6 607.5,420.6 611.8,420.1 C630.5,418.2 653.5,424.2 669.5,437 C686.3,450.4 698,471.5 693.2,489 C689.1,481.5 681.2,476.2 685.1,485.8 C691.6,501.7 691.5,519.7 681,527.9 Z"/>
    <polygon fill="#ED3237" points="343.3 141.7 329.4 123.2 314.9 95.1 308.4 59.3 322 33 349.5 23.7 382.8 31.1 403.9 42.9 425.2 23.1 458.5 8.9 500.3 8.9 541.6 33.9 571.3 85.5 581.8 137.7 578.4 202 601.6 225.5 606.8 256.7 594.5 283.9 579.7 293.1 567 267.5 531.5 259.8 518.8 210 498.7 205.7 481.4 191.8 455.1 136.2 380.7 107.4 355.7 122.6"/>
    <polygon fill="#FCD0AF" points="343.3 141.7 334 156.6 311.8 149.2 275 156.9 261.1 176 256.5 201.7 266.1 226.4 280.6 241.5 272.9 268.7 277.8 301.5 313 338.9 325.4 356.5 357.5 369.8 383.5 366.4 406.3 354.3 446.2 353.1 482 337 501.8 347.2 542.6 347.5 570.1 326.5 579.7 293.1 567 267.5 531.5 259.8 522.5 224.6 518.8 210 498.7 205.7 481.4 191.8 455.1 136.2 380.7 107.4 355.7 122.6"/>
    <polygon fill="#A45E4D" points="495.9 362.3 501.8 347.2 482 337 446.2 353.1"/>
    <polygon fill="#ED3237" points="575.3 396.3 495.9 362.3 447.1 353.1 408.8 379 375.1 424.1 389.3 471.7 433.2 455.3 444.3 439.9 483.9 453.8 519.4 473.3 524.7 444.8 545.7 414.2"/>
    <polygon fill="#EC1C24" points="334 379 286.1 355.5 313 338.9 325.4 356.5 357.5 369.8"/>
    <polygon fill="#ED3237" points="288.6 325 259.3 321.2 229.9 325.6 224.4 337.3 190.1 354.3 159.2 359.3 127.3 351.5 127 375 146.8 398.2 195.9 400 198.4 379.3 222.5 350.6 252.2 339.2"/>
    <polygon fill="#0098DA" points="149.3 444.5 164.7 441.7 174.6 448.5 187.6 400 195.9 400 198.4 379.3 222.5 350.6 288.6 325 299.1 323.7 313 338.9 286.1 355.5 334 379 357.5 369.8 383.5 366.4 406.3 354.3 447.1 353.1 408.8 379 375.1 424.1 389.3 471.7 433.2 455.3 410.3 499.5 403.9 546.2 394.6 567.5 413.1 565.3 434.6 579.7 447.7 615.4 450.8 657.7 435.4 688.9 417.5 697.6 396.2 697.3 388.1 689.8 345.5 691.4 301.3 672.8 271 611.7 226.2 581.4 199.6 593.4 188.2 610.7 168.7 616 174.9 574.6 168.4 502.3"/>
    <polygon fill="#CE8F64" points="24.2 437.4 44.2 414.6 81.9 402.2 124.9 413.3 149.3 444.5 168.4 502.3 174.9 574.6 168.7 616 145.3 635.1 128 637.9 135.4 622.5 127.3 548.9 108.5 481 84.1 446.7 48.9 432.5"/>
    <polygon fill="#FAB16A" points="7.8 457.5 24.2 437.4 54.6 431.7 84.1 446.7 108.5 481 124.7 551.5 135.4 622.5 124.9 645.3 98.1 650.6 70.5 638.8 46.4 596 45.2 581.1 25.8 552.2 7.2 505.4"/>
    <polygon fill="#CE8F64" points="495 737.5 471.1 754.8 442 757.5 406.4 733.9 396.2 697.3 417.5 697.6 435.4 688.9 450.8 657.7 447.7 615.4 434.5 579.7 413.1 565.3 394.6 567.5 410.6 550.1 435.7 544.7 451 548.9 464.2 566.8 489.3 615.9 505.8 660.5 506.7 709"/>
    <polygon fill="#FAB16A" points="470.2 545.9 451 548.9 464.2 566.8 489.3 615.9 505.8 660.5 506.7 709 495 737.5 504.3 739.8 522.6 724.3 527.6 700.3 523.1 659 499.5 607.6 506.1 601.6 492.9 565.3"/>
    <polygon fill="#FFF" points="115.8 321.7 102.3 299.3 104.6 265.4 118.4 239.6 150.6 211.2 196.2 196.4 227.6 209.3 247.5 236.2 245.6 258.3 258.1 270.1 252.9 297 233.1 312.2 229.9 325.6 224.4 337.3 190.1 354.3 159.2 359.2 127.3 351.5 113.9 333.5"/>
    <polygon fill="#FFF" points="533.5 496.8 535.5 534.2 556.3 555.2 583.2 552 595.2 573.5 628.5 583.6 649.8 565.8 671.5 555.7 677.7 534.2 692.3 524.7 694.9 496.6 701.6 476.6 683.9 440.3 642.9 416.9 618 415.4 611.1 401.4 597.1 395.8 575.3 396.3 545.7 414.2 524.7 444.8 519.4 473.2"/>
    <polygon fill="#FFF" points="420.1 56.5 430.7 43.5 451.7 30.6 476.8 30 494.1 38 506.8 55.6 509.6 81 499.6 109.2 479.4 122.7 444 76.1"/>
    <polygon fill="#FFF" points="346.6 172.8 339.7 165.9 347.5 150.4 359.9 137.7 371.7 132.8 380 137.7 381.2 146.9 375.1 163 359.6 185.8"/>
    <polygon fill="#FFF" points="391.3 215.7 393 197 408.5 171.4 428.1 161.9 444.8 165.6 450.9 179.2 444.5 204.5 428.1 226.7 415.7 231 401.3 232.2"/>
    <polygon fill="#2BC2E8" points="351.2 162.2 360.7 150.4 369.7 145.2 375.7 147.2 376.9 155 375.1 163 359.6 185.8 346.6 172.8"/>
    <polygon fill="#FFF" points="363.1 160.6 367.1 157.5 371 158.9 371.1 163.4 368 169.4 364.2 170.5 361.2 167.7"/>
    <polygon fill="#2BC2E8" points="415 231 406.6 226.6 404.5 215.9 408.5 201.8 415.9 190.4 426.7 180.8 436.8 177.4 444 179.9 447.1 189 444.5 204.5 428.1 226.7"/>
    <polygon fill="#FFF" points="431 194.6 427.3 200.6 428.6 208.5 436.6 206.2 440 199.2 440.2 193.3"/>
    <polygon fill="#A45E4D" points="514.9 268.3 495.5 286.9 474.8 295.2 463.5 283.6 467.4 266 462.3 255.1 469.5 241 493.8 238.7 522.5 224.6 531.5 259.8"/>
    <polygon fill="#FFF" points="388.6 283.4 387.7 299.9 362 305.4 340 308.2 322.8 303.3 320.1 291.3 341.6 292 370.1 288"/>
    <polygon fill="#EC1C24" points="381 322.6 369.4 336.5 353.7 340.9 336 331.8 334 319.3 340 308.2 362 305.4 387.7 299.8"/>
    <polygon fill="#FFCC29" points="246.6 341.3 257.3 348 256.3 359.6 246.6 375.4 225.7 387.4 211.1 387.2 203.5 373.8 222.5 350.6"/>
    <polygon fill="#FFCC29" points="308.9 409.5 306.4 423.1 311.7 437.3 330.5 442.8 349.3 432.6 357.8 414.1 354.1 396.7 337.4 388.8 319.1 394.9"/>
    <path fill="#ED3237" d="M437.1,63.9 C440.1,60.6 447.3,54.1 449.8,51.2 C450.5,57.7 451.2,64.8 451.7,69.7 C457.5,67 469.2,62.6 475.5,60 C474.1,67.4 468.6,90.5 466.5,98.9 C471.7,99.2 481.1,99.6 484.8,99.7 C485.3,93 488.5,58.5 489.1,44.8 C478.5,48.4 465.4,54.9 458.2,58 C457.9,53.3 457.2,46.6 456.4,36 C448.1,41.6 434.6,52.4 429.8,56.6 C432.3,60.6 434.5,61.6 437.1,63.9"/>
    <path fill="#373435" d="M443.1,211.4 C430,231.6 410.9,241 398.6,233.1 C393.4,229.8 389.9,224.6 388.5,218.1 C386.2,207.5 389.5,193.9 397.3,181.8 C410.3,161.6 430.4,153.7 445.1,162.8 C449.2,165.4 452,169.5 453.2,174.6 C455.4,184.5 451.6,198.2 443.1,211.4 Z M413.7,228.8 C415.8,228.2 418,227.2 420.2,225.9 C419.5,225.7 418.8,225.5 418.2,225.1 C412.1,221.3 413.4,210.4 419.7,200.7 C426,191 435.2,185.9 441.6,189.8 C443.2,190.8 444.1,192.4 444.5,194.5 C445.4,190.9 445.7,187.7 445.1,185.2 C444.6,183.1 443.6,181.5 442.1,180.6 C434.5,175.9 422.6,182.3 413.8,195.8 C407.9,204.9 405.2,214.7 406.6,221.4 C407.2,224.3 408.6,226.5 410.8,227.8 C411.5,228.4 412.5,228.7 413.7,228.8 Z M436.5,195.7 C434.6,194.4 431.6,195.4 429.8,198 C428.1,200.6 428.2,203.7 430.2,205 C432.1,206.3 435.1,205.3 436.9,202.7 C438.6,200.2 438.5,197 436.5,195.7 Z M408.4,229.6 C406.1,227.8 404.4,225.3 403.7,222 C402.1,214.5 404.9,204.2 411.3,194.3 C420.9,179.4 434.4,172.7 443.4,178.2 C445.3,179.4 446.6,181.2 447.4,183.6 C447.7,180.8 447.6,178.2 447.1,176 C446.3,172.5 444.5,169.8 441.8,168.1 C430.2,160.9 413.7,168 402.6,185.2 C395.6,196 392.7,207.8 394.6,216.8 C395.7,221.7 398.2,225.5 402,227.9 C403.8,229.1 406,229.6 408.4,229.6 Z M605.3,443.8 C604,445.6 607.6,454.2 612,458.2 C616.2,461.9 620.9,463.5 623.6,460.8 C626.2,458.1 626.2,453.6 621.3,449 C616.2,444.1 606.4,442.3 605.3,443.8 Z M634,432.7 C628.3,430.1 619.4,431.4 618.9,433 C618.3,434.9 623.9,441.2 628.8,443.3 C633.4,445.2 637.9,445.1 639.4,442.1 C640.9,439 639.5,435.2 634,432.7 Z M592.4,456.8 C590.3,457.6 588.6,466.5 590.1,471.9 C591.5,477.1 594.7,480.8 598.4,480 C602.1,479.2 604.5,475.5 602.9,469.2 C601.4,462.6 594.2,456.1 592.4,456.8 Z M331.1,428.9 C339.4,427.7 348.6,420.7 347.8,408.9 C347.5,405.3 345.7,402.6 344.6,407.7 C342.6,417.6 335.5,423.8 327.6,426.3 C322.8,427.8 326,429.6 331.1,428.9 Z M505.3,313.4 C508.5,309.4 512.2,305.8 516.1,302.9 C521.3,302.6 524.9,306.4 525.4,315.5 C525.6,318.5 527.7,319.9 529.6,314 C531.9,306.9 529.1,301 524.9,298.1 C532.3,295.2 540.1,295.4 546.8,300.6 C549.6,302.8 552.9,304.3 550.9,298.9 C550,296.5 546.9,292.7 542.7,290.7 C531,285 510.5,289.3 502,308 C498.7,315.4 500,320 505.3,313.4 Z M227.7,377 C235.2,375.6 242.9,370.7 244.9,361.1 C245.5,358.1 244.2,355.8 242.3,359.8 C238.4,368 232.7,371.9 225,374.5 C220.7,375.9 223.2,377.8 227.7,377 Z M698,506.4 C699,519.6 694.8,534.1 680.3,542.3 C679.7,545.3 678.8,548.3 677.8,550.9 C673.2,562.1 662.4,570.5 650.1,572.5 C646.1,579.3 639.6,584 631.8,585.6 C617.7,588.5 593.7,583.9 580.1,559.8 C570.1,563.2 556.8,563.3 542.5,550.5 C527.4,537 524.8,516.2 528.8,496.9 C522.2,491.7 518.2,483.8 516.5,476.4 C492.2,463.1 470.4,453.1 448.9,445.6 C436,460.2 421.5,487.1 416.1,499.5 C415.8,516.7 413.5,531.4 410,543.9 C421.3,537.4 436.5,536.9 451.4,543.2 C460.8,539.8 469.9,540 478.1,544.2 C492.2,551.4 502.7,569.7 509.1,598.6 C510,602.6 508.7,605.8 505.4,608 C516.3,626.3 526.2,648.1 530.9,676.8 C536.7,712.8 525.6,745.4 492.8,745.9 C479.7,759.2 461.2,764.6 441.7,761.7 C412.3,757.3 391.3,726.9 389.8,698.2 C387.2,696.9 384.7,695.3 382.4,693.4 C357.6,699.9 331.6,699.4 309.8,684.9 C286.6,669.5 273.6,640.2 264.3,613.5 C249.9,607.6 236.3,598.6 224.6,586.8 C217.3,591.4 210,595.6 202.3,599.4 C196.6,613.7 182.8,622.1 170,620.9 C161.9,634.2 145.8,641.5 131.3,642 C115.7,661.2 84.1,658.1 68.2,641 C52.5,624.6 41.4,599.4 41.3,580.9 C26,564.6 12.9,540.1 4.9,512.7 C-1.8,488 -1.8,454.1 20.9,436.3 C43.5,388.5 115.4,386.3 144.4,424.9 C147,428.4 149.5,432.4 151.9,436.9 C158.3,435.3 164.2,436.1 169.4,438.4 C171.1,428 175.3,415.4 180.7,405.5 C158.8,407.6 141.4,403 130.6,391.8 C121,381.9 117.5,367.6 120.7,352 C111.4,344.6 105.1,332.3 110.6,321.2 C93.3,303 92.6,277 105.4,252.8 C126.1,213.5 173.6,186.3 207.9,194.5 C242.3,202.7 255.3,233.4 252,255.5 C267.9,266 265.2,289.3 251,304 C246.3,308.9 239.6,314.2 232.8,318.3 C232.9,318.7 233,319.1 233,319.5 C248.2,316.8 267.8,316 285.4,317.3 C271.5,301.7 264.9,284 268.3,263.6 C266,259.6 265.1,254.5 266.6,249.8 C257.8,248.8 251.7,239.5 259.5,225.7 C236.8,189.7 263.8,136 314.3,144.9 C320.1,145.9 326,148.1 331.7,151.1 C333.4,148.2 335.4,145.1 337.5,141.9 C325.3,126.6 313,105.7 307.9,90.2 C294.2,48.9 316.1,3.7 379,24.8 C385.6,27 394.1,31.3 403.3,36.9 C423.3,13.9 455.2,-0.9 486,1.1 C514,2.9 541.1,20.3 561.8,49.9 C581.8,78.6 593,137 587.5,178.7 C586.4,187.4 584.7,195.1 583,201.7 C602.7,213.6 614,235.3 611.6,257.8 C609.7,276.2 599.1,290.7 582.9,297.3 C582.9,302.2 582.2,307.4 580.6,312.9 C571.5,343.5 538.6,357.1 508.7,352.3 C509.1,355.6 508.2,358.9 506.1,361.5 C533.2,370.5 558.7,381.2 579.3,392.5 C598.8,389.4 616.5,395.5 621.7,411.1 C638.9,410.9 658.2,415.9 676,429 C695.3,443.4 716,476.7 698,506.4 Z M496.1,349.3 C492,347.8 488,346 484.2,343.7 C479.9,346.7 475.2,349.1 470.4,351.1 C478.2,353.1 485.9,355.3 493.5,357.7 C497,355.9 498.1,352.3 496.1,349.3 Z M426.7,359.8 C420.4,360 414.6,359.9 409.6,359.6 C389.7,371.3 371.6,375.4 355.9,373.7 C346.8,377.6 337.3,382.3 328.8,388 C331.3,387.3 333.8,386.8 336.3,386.8 C343,386.6 349.1,388.8 353.6,393 C364.2,403 363.1,421.5 351.1,434.2 C339.1,446.9 320.7,449.2 310.1,439.2 C305.6,435 303,429 302.8,422.3 C302.7,420.6 302.9,419 303.1,417.3 C302.8,418.2 302.5,419.2 302.2,420.1 C294.4,449.4 323.3,465.7 347.6,447.7 C360.9,437.8 365.4,428.9 372.7,416.2 C383.2,400 405.2,372.9 426.7,359.8 Z M310,422.1 C310.1,427 311.9,431.1 315.1,434.1 C322.9,441.5 336.9,439.3 346.3,429.4 C351.5,423.8 354.2,417 354.2,410.7 C354.2,405.8 352.5,401.2 349.1,398 C345.9,395 341.7,393.5 336.8,393.6 C330.1,393.8 323.2,397.1 318,402.7 C312.6,408.4 309.8,415.4 310,422.1 Z M224.3,354.8 C216.3,360.8 210.6,368.7 209.7,375.1 C209.4,377.5 209.7,379.4 210.8,380.9 C211.9,382.3 213.6,383.2 216,383.6 C222.4,384.5 231.6,381.2 239.6,375.3 C247.6,369.3 253.3,361.4 254.2,355 C254.5,352.6 254.2,350.7 253.1,349.2 C249.5,344.3 236.8,345.5 224.3,354.8 Z M228.8,396.7 C240,391 278.2,349 307.6,337 C307.5,336.8 307.3,336.5 307.2,336.3 C304.1,334.1 301.1,331.9 298.3,329.6 C283.9,330.7 268.9,335.4 254.9,341.7 C256.3,342.5 257.6,343.6 258.5,344.9 C260.2,347.2 261.1,350 261.1,353.2 C261.1,354 261,354.9 260.9,355.8 C259.7,364 253.1,373.6 243.6,380.7 C234.1,387.8 223.1,391.5 214.9,390.3 C210.7,389.7 207.3,387.8 205.1,384.9 C204,383.4 203.3,381.8 202.8,379.9 C194.8,393.7 208,407.1 228.8,396.7 Z M294.6,353.2 C309.6,358.9 328.8,368.6 337.5,374.3 C339.7,373.2 342,372.1 344.3,371.1 C330.9,366.6 319.8,357 311.5,343.8 C305.7,346.1 300.1,349.4 294.6,353.2 Z M411.5,42.4 C414.8,44.7 418.2,47.1 421.6,49.6 C436.7,28.3 462.5,19.6 484.2,29 C496.2,34.2 504.8,43.5 509.2,55.9 C514.4,70.9 512.7,89.5 504.7,104.5 C500.6,112.2 494,118.5 486.1,122.6 C505.9,154.7 525.3,198.6 535,255.2 C541.2,254.3 548.1,254.7 555.5,257.1 C566.3,260.7 577.2,271 581.1,285.7 C591.9,280.2 598.9,269.7 600.3,256.6 C602.1,239.3 593.9,222.5 579.3,212.6 C574.1,226.6 569.3,229.8 571.6,217.2 C582.7,156.1 575.8,96.8 549.6,57.5 C531.1,29.7 512.4,16.5 484.6,13.8 C458.3,11.3 429.3,23.6 411.5,42.4 Z M475.2,286.7 C483.3,289.9 490.6,284.3 500.7,274.8 C506.4,269.5 514.8,261.7 525.9,257.6 C524.3,248.8 522.5,240.3 520.5,232.1 C513.7,238.3 503.2,241.7 487.9,243.6 C476.4,245 470.7,245.7 469.2,251.4 C467.6,257.6 470.7,261.2 475.2,263.4 C475.2,263.4 475.2,263.4 475.2,263.4 C466.3,271.2 467.2,283.6 475.2,286.7 Z M482.4,116.8 C489.4,113.3 495,108 498.6,101.3 C505.7,88 507.3,71.5 502.7,58.3 C499,47.8 491.7,39.9 481.5,35.5 C462.8,27.4 440.4,35.2 427.2,53.9 C428.1,54.6 429,55.3 429.9,56 C439.1,63.4 460.7,83.1 482.4,116.8 Z M343.3,133.4 C350.7,123.2 359.3,112.9 367.8,105 C374.3,96.4 382.3,92.7 389.6,95.8 C393.5,97.4 395.8,101.5 396.6,106.9 C411.1,110.8 426.1,116.4 439.7,123.2 C414.7,84.8 393.1,65.6 362.5,51.8 C343.1,43 367.6,43.7 391.1,58.2 C403.8,66.1 428,85.5 449.8,120.4 C451.9,123.8 453.9,127.4 455.8,131 C462.6,130.2 469,131.2 474,134.8 C485.6,143.2 486,160.5 478.1,176.5 C486.8,191.8 497.1,203.5 512.6,205.6 C486.4,125.9 441.2,81 421.8,65.4 C399.8,47.8 387.8,40.4 374.7,35.9 C325.9,19.2 305.7,48.2 317.8,87.1 C322.9,103.4 332.4,119.2 343.3,133.4 Z M369.1,159.7 C367.8,158.6 365.6,159.6 364.2,161.9 C362.8,164.2 362.8,166.8 364.1,167.9 C365.4,169 367.6,168 369,165.7 C370.4,163.5 370.4,160.8 369.1,159.7 Z M373.9,147.8 C372.7,146.9 371.3,146.5 369.6,146.8 C364.8,147.6 358.7,153.1 353.6,161.1 C352.6,162.7 351.8,164.2 351,165.7 C352,166.7 352.9,167.7 353.8,168.7 C354.5,167.3 355.2,165.8 356.1,164.4 C361.3,156.1 368.4,151.7 372.7,155.2 C373.7,156 374.2,157.2 374.4,158.7 C375.8,153.5 375.8,149.4 373.9,147.8 Z M376,137.8 C374.3,136.4 372.2,135.9 369.8,136.2 C363.5,137.2 355.7,143.9 349.4,153.7 C347.9,156 346.6,158.3 345.5,160.6 C346.6,161.6 347.7,162.6 348.8,163.6 C349.5,162.2 350.3,160.8 351.2,159.5 C356.8,150.7 363.5,144.9 369.1,144 C371.6,143.6 373.8,144.1 375.6,145.6 C376.6,146.4 377.3,147.5 377.7,148.8 C378.7,143.7 378.2,139.7 376,137.8 Z M316.2,327.7 C329.4,361 362.7,375.7 407.1,347.6 C436.4,350 466.4,345 483.3,329 C508.8,351.5 560.5,345.8 571.4,310 C579.6,283.1 565.4,268.7 553,265.1 C534,259.5 516.2,269.9 505.9,280.4 C498.5,288 485.9,303.4 471.4,297.6 C461.3,293.6 455,279.9 464,266.2 C459.1,262.4 457.4,254.1 459.7,248 C462.7,239.8 471,235.4 487.1,234.7 C500.1,234.1 512.2,229.9 517.5,221.5 C516.9,219.5 516.3,217.5 515.7,215.5 C492.7,213.2 481,202.1 471.9,186.4 C471.3,187.2 470.7,187.9 470.1,188.7 C468.4,190.7 467.7,190.6 467.8,187.8 C469.7,156.4 453.2,146.1 423.6,151.8 C420.5,152.4 419.9,151.6 422.1,149.3 C427.4,143.6 434.3,138.6 441.6,135.3 C427.7,127.9 411.7,121.4 396.4,117.1 C395.8,122.8 394.1,129.2 391.5,135.5 C390.5,138 389.6,138.2 389.2,135.2 C386.1,112.2 377,110.6 365,120.3 C355,131.4 345.5,144.9 339.1,156 C339.7,156.4 340.3,156.9 340.9,157.3 C342,155.1 343.2,153 344.6,150.9 C351.8,139.6 360.9,132.2 368.8,130.9 C372.8,130.3 376.5,131.2 379.4,133.7 C382.3,136.1 383.6,139.9 383.6,144.3 C383.6,152.9 378.9,164.2 372.6,174.1 C370.1,178 367.4,181.6 364.6,184.6 C366.8,188.8 368.6,193.1 369.9,197.6 L359.9,200.3 C353.3,178.5 333.6,160.5 311.7,156.4 C262.4,147.3 239.7,219.1 296.6,239.8 C320.5,248.5 343.5,246.4 362.4,233.3 L368.4,241.8 C367,242.8 365.6,243.7 364.2,244.6 C387.6,249.6 405.8,248.3 431.4,238.5 C433,237.9 433.3,238.1 433.6,239.7 C438.1,270.3 417.9,283.4 397.9,273.8 C396.9,277 394.9,279.6 392.4,281.7 C393.5,317.9 377.4,340.4 360.6,343.4 C341.6,346.9 324.6,328.7 314.8,294.8 C311.9,294.1 309.6,293 308.1,291.7 C303.4,287.9 304.6,282.6 307.1,284.5 C310.1,286.8 313.8,287.4 317.3,288 C329.7,290.3 351.1,289.3 367.2,285.9 C362.9,284.6 358.6,282.4 354.9,279 C349.6,292.4 324.6,291 314.9,276.1 C304.5,286.9 287.4,281 286.1,267.8 C283.3,269.9 280.6,270.6 278,270.4 C276.9,292.6 289.4,313.2 316.2,327.7 Z M359.3,336.5 C370,334.6 379.9,322.2 383.8,302.8 C373.1,307.3 355.9,310.8 342.1,311 C337.9,315.6 336.5,321.3 338.1,327 C345.4,335.2 353,337.7 359.3,336.5 Z M385.5,287.3 C371.4,294.3 343.5,296.6 324.6,295.7 C325.7,300.6 328.2,303.4 336.6,303.9 C351.6,304.8 375.6,300 385.1,294.4 C385.3,292.2 385.4,289.8 385.5,287.3 Z M131.4,347.4 C151.5,356.7 186.4,353.4 204.7,344.2 C214.9,339.1 224.8,331.3 225.3,322.4 C222.4,323.8 219.7,324.9 217.1,325.6 C199.1,330.5 183.9,326.3 195.9,322.9 C210.4,318.9 228.9,312.7 243.7,297.6 C258.9,282.1 253.1,259.1 233.7,260.7 C213.9,262.4 192,275.4 189.2,288.9 C187.2,298.4 198.9,310.7 228.3,294.9 C235.3,291.1 231.9,301.4 220,307.8 C216.7,309.5 209.5,311.5 203.7,311.6 C197.5,312.3 190.1,309.2 185.1,304 C184.5,304.4 183.9,304.8 183.3,305.1 C178.2,308.3 172.1,308.2 166.8,306.4 C166,310 164.5,313.6 162,317 C150.2,332.8 127.2,321.3 120,304 C115.7,293.9 119.3,292.5 122.8,297.3 C135.3,314.3 147.2,319.3 155.1,311.2 C164.3,301.8 150.6,277.6 143.6,267.4 C139.8,261.8 143,258.9 152.6,268.1 C158,273.2 166.4,285.4 167.3,298.3 C171.9,300.3 176.8,299.4 180.5,296.5 C179.5,293.6 179.2,290.5 179.9,287.1 C181,282.1 183.4,277.5 186.8,273.3 C185.5,263.1 181.2,253.3 173.5,241.3 C170.4,236.4 178.1,236.1 187.1,248.9 C192.2,256.2 194.1,261.9 194.9,265.4 C200.9,260.6 208,256.8 214.6,254.1 C212.9,244.8 208.8,235.6 201.6,224.5 C198.5,219.6 206.2,219.3 215.1,232.2 C221.6,241.6 223,248.4 223.4,251.2 C227.4,250.2 231,249.7 233.8,249.9 C236.2,250 238.5,250.3 240.6,250.8 C242,231.6 229.5,211 205.6,205.3 C176,198.3 133.4,221.3 114.9,256.9 C98.3,288.7 107.1,321.3 148.2,329.9 C155.4,331.4 152.6,335.5 139,334.2 C130,333.4 122.5,330.1 117.8,327 C115.9,334.9 121.9,343 131.4,347.4 Z M191.3,391.9 C190.3,380.5 199,370.8 204.8,364.6 C206,363.3 207.3,362.1 208.6,360.9 C211.6,356.7 215.5,352.7 220.1,349.2 C225.8,344.9 231.8,342 237.4,340.5 C247.9,335 258.7,330.2 270,326.7 C256.5,326.6 242.8,327.8 232.1,330 C228.6,340.6 217.8,348.2 209,352.6 C186.2,364.2 155.4,367 131.6,357.8 C130.3,368.1 132.8,377 139,383.4 C149.1,393.8 167.5,396.7 191.3,391.9 Z M126.8,632.5 C132.7,622.7 132.7,592.3 123.2,569.1 C119.3,528.5 114.4,509.8 104.5,484.7 C96.5,464.3 81.9,445.4 59.4,438.5 C48.7,435.2 36.5,435 28.2,441.5 C8.6,456.7 8,486.1 15.1,509.6 C21.5,533.4 33.3,556.8 49,577.8 C59.4,571.1 84.3,572.1 95.4,573.6 C99.9,574.8 101.8,577.1 96.7,577.4 C85.1,577.8 63.2,580.5 51.4,582.3 C50.7,593.8 61.7,619.1 74.7,632.7 C82.3,640.2 90.1,643.3 96.8,642.2 C109,640.2 116.3,611.6 104.2,577 C101.9,543.8 94.6,517.4 88,500 C77.6,472.6 56.5,456.6 43.6,455.6 C32.5,454.8 27.7,456.9 22.2,463.1 C20.3,465.2 19.3,461.6 23.1,456.5 C28.2,450.1 33.7,448.4 44.5,449.1 C62.7,450.2 83.7,466.9 94.9,498.1 C101.7,516.9 108,536.6 110.7,575.6 C123.5,605.7 119.2,634.8 107,644.5 C115.2,643.5 122.6,639.6 126.8,632.5 Z M164.8,608.2 C177.8,570.2 167,469.2 135.3,431.1 C110.8,401.6 60.2,401.8 38.1,429.6 C45.8,428.1 53.9,428.6 61.8,431 C87.2,438.8 103.2,459.9 112.2,482.4 C120.3,502.7 127.3,528.9 129.8,566.8 C138.7,585.2 140.9,614.1 137,630.5 C149.7,628.5 160.2,621.6 164.8,608.2 Z M400.4,676.6 C410,673 413,675.5 395.6,688.2 C406.9,694 420.9,693.5 430.1,685.1 C457.7,660.2 442.7,603.5 434.8,589.9 C421.7,567.4 408.2,565.4 396.4,574.8 C384.3,594.3 368.9,604.9 357.5,610.6 C332.5,623 305,625.4 279.3,618.8 C287.4,641.1 298.2,662.1 316.2,675.4 C335.6,689.6 364.6,690.1 400.4,676.6 Z M503.1,677.7 C501.5,659.9 495.4,638.8 481.1,607 C467.8,577.4 457.7,556.9 440.6,550.9 C427.9,547.4 413.5,553 406.8,561.2 C418.7,559.5 431.1,566.4 442.3,585.8 C451.5,601.6 470.5,661.8 437.3,693 C428.2,701.5 414.5,704.5 401.8,702.2 C404.5,725.8 420.7,747.9 443.4,751.8 C472.9,757 508.3,735 503.1,677.7 Z M457.9,552.8 C470.3,564.3 478.8,583.3 488.1,603.9 C502.7,636.4 509.4,658.5 511.3,677.1 C513.7,700.7 509.9,719.5 502.1,733.4 C520.4,727.8 524.3,700.2 521.3,678.2 C517.9,653.6 510.8,631.2 491.7,602.5 C491.7,602.5 496.3,600.3 497.7,599.3 C492.1,575.2 483.6,559.6 473,554.1 C468.9,552.1 463.3,551.6 457.9,552.8 Z M420.2,464.7 C407.3,469.9 393.5,476.6 386.7,480 C383.9,468.3 378.6,451.7 372.8,436.1 C367.8,443.5 361.8,450.6 354,456.4 C321.5,480.3 282.2,454.8 293.9,418.6 C299.7,400.7 312.5,388.7 327.6,379.7 C316.6,373.3 297.4,364.1 285.1,360.2 C264,376.8 245,398.3 233.4,405.1 C226.8,409 209.3,415.8 196.2,403.4 C188.3,412.7 180.7,433.6 180.4,446.6 C180.6,446.8 180.7,446.9 180.9,447.1 C199.3,432.4 222,426.2 243.6,430.2 C263,433.7 290.9,447.1 313.6,490.3 L303.1,495.8 C286.9,464.9 265.5,446.3 241.4,441.9 C222.5,438.4 202.7,444.2 186.6,457.8 C189.5,466.6 187.4,473 184.8,468.2 C178.4,456.6 165.8,447.6 157.6,449.4 C177.3,497.4 183.9,576 174.8,608.4 C182,607.2 189.9,601.6 192.1,590.3 C204.3,584.9 215.5,579.4 227.1,572.2 C248.1,596.2 296.5,627 352,599.5 C387.8,581.7 402.3,546.2 403.5,496.9 C407.6,487.5 413.5,475.9 420.2,464.7 Z M436,441.4 C430.3,439.7 424.6,438.1 418.9,436.6 L421.8,425.1 C452.2,432.7 482.4,444.7 515.8,462.5 C518.5,437.6 538.5,408.7 562.7,397.3 C532.4,382.3 493.1,368.4 454.9,359.4 C450,358.7 444.5,359.8 438.5,362.3 C417.5,370.9 392.9,402.7 381.4,421.5 C380.6,422.9 379.9,424.2 379.1,425.6 C384.8,440.2 390,455.7 392.9,466.6 C402.2,462 416.4,455.1 428.8,451 C431.2,447.7 433.6,444.4 436,441.4 Z M685.2,485.9 C681.3,476.2 689.2,481.5 693.3,489.1 C698,471.7 686.3,450.5 669.6,437.1 C653.6,424.3 630.6,418.4 611.9,420.2 C607.6,420.6 603.5,421.6 599.8,422.8 C593.2,424.8 598.5,415.3 612.4,412.2 C607.1,402.7 592.3,397.3 574.7,403.6 C548.5,413.1 523.5,445 524.9,470.4 C525.3,476.8 527.2,482.5 531.4,487.4 C535.6,474.7 542.5,463.5 550.2,456.6 C556.7,450.8 561.1,451.4 557.7,456 C540.7,479.1 527.5,521 548.7,540.8 C561.2,552.5 579,548.8 587.2,543.5 C583.7,540.9 579.6,538.6 575.1,536.9 L578.6,527.8 C592.6,533.2 603,542.5 606.9,553.4 L597.8,556.7 C597.1,554.8 596.1,553 594.9,551.2 C593.5,552.4 591.4,554 588.9,555.6 C595.8,569.3 617.9,578.9 628.3,575.9 C639.5,572.7 646.7,563.4 645.7,542.9 C644.9,527.6 653.3,541.1 654.4,550.6 C654.8,553.9 654.7,557 654.4,559.9 C668.6,554.5 674.6,533.8 671.1,512.7 C669.2,501.3 679.3,511.7 681.1,528 C691.5,519.7 691.6,501.7 685.2,485.9 Z"/>
  </g>
</svg>
