<svg xmlns="http://www.w3.org/2000/svg" width="1033" height="858" viewBox="0 0 1033 858">
  <defs>
    <linearGradient id="mushroom-big-a" x1="50%" x2="50%" y1="0%" y2="100%">
      <stop offset="0%" stop-color="#FD0"/>
      <stop offset="100%" stop-opacity=".15"/>
    </linearGradient>
    <linearGradient id="mushroom-big-b" x1="50%" x2="50%" y1="0%" y2="100%">
      <stop offset="0%" stop-opacity="0"/>
      <stop offset="100%" stop-opacity=".15"/>
    </linearGradient>
  </defs>
  <g fill="none" fill-rule="evenodd" transform="translate(8 8)">
    <g stroke-width="8">
      <path fill="#FD0" stroke="#FD0" d="M515.084903,739.653646 C356.580993,739.653646 230.862547,718.293425 142.80107,673.779388 C46.4823357,625.091403 -4,549.074606 -4,444.675023 C-4,180.622525 210.753041,-4 515.084903,-4 C662.303818,-4 790.222102,42.159835 881.668862,125.228334 C971.390838,206.730072 1021,319.454107 1021,444.675023 C1021,635.259735 831.418828,739.653646 515.084903,739.653646 Z"/>
      <path stroke="url(#mushroom-big-a)" d="M515.084903,739.653646 C356.580993,739.653646 230.862547,718.293425 142.80107,673.779388 C46.4823357,625.091403 -4,549.074606 -4,444.675023 C-4,180.622525 210.753041,-4 515.084903,-4 C662.303818,-4 790.222102,42.159835 881.668862,125.228334 C971.390838,206.730072 1021,319.454107 1021,444.675023 C1021,635.259735 831.418828,739.653646 515.084903,739.653646 Z"/>
    </g>
    <path fill="#EC1C24" d="M1006.55156 517.431599C963.882895 503.759289 934.138357 413.567802 917.113897 339.858161 898.864872 260.846601 887.808265 183.151452 893.493938 142.43026 972.326531 221.002891 1017 326.54902 1017 444.841887 1017 470.78875 1013.43829 494.982863 1006.55156 517.431599zM514.824162 311.364583C641.00389 311.364583 749.599138 249.807598 749.599138 176.500533 749.599138 88.6699012 641.00389 17.5416667 514.824162 17.5416667 370.605249 17.5416667 268.496767 88.6699012 268.496767 176.500533 268.496767 257.25558 388.644434 311.364583 514.824162 311.364583zM122.011225 145.146721C138.364235 172.826938 93.5014466 479.807087 10.2172652 519.416634 3.49371263 496.516055 0 471.527477 0 444.329837 0 324.641288 44.6950964 221.705567 122.011225 145.146721z"/>
    <g stroke-width="8">
      <path fill="#FFD29D" stroke="#FFD29D" d="M509.910726,569.393229 C600.485284,569.393229 656.997829,581.359071 688.232225,604.619334 C701.893781,614.793099 710.73871,627.084085 715.825108,641.817242 C719.921046,653.681452 721.491014,666.266416 721.764609,683.519399 C721.82327,687.218592 721.827688,690.178387 721.805822,696.764329 C721.79678,699.487845 721.7938,700.680803 721.7938,702.175826 C721.7938,730.703395 716.148529,756.78676 706.235298,778.687825 C697.841443,797.232168 686.695655,811.785398 676.186951,818.853655 C675.693251,819.185722 675.179767,819.534795 674.555179,819.962247 C674.339806,820.109643 674.119806,820.260461 673.823764,820.463596 C673.45598,820.716003 673.45598,820.716003 673.085653,820.97007 C672.481699,821.384279 672.030375,821.692705 671.581968,821.997122 C670.417573,822.787613 669.413458,823.454471 668.414758,824.096171 C657.317946,831.226256 645.386978,835.747856 625.072083,839.293848 C599.811575,843.703102 562.928411,846 509.910726,846 C457.86997,846 421.086455,843.757521 395.51768,839.469716 C374.789796,835.993714 362.153585,831.473511 351.14372,824.68404 C349.810464,823.86186 348.495038,823.00773 346.986557,821.993752 C346.091743,821.392272 342.925939,819.230335 343.194942,819.41326 C342.899083,819.212073 342.62672,819.027568 342.365256,818.851305 C332.576529,812.252349 321.673751,795.874052 313.24417,775.184674 C303.962882,752.404887 298.499042,726.678393 298.499042,702.175826 C298.499042,700.829836 298.49556,699.778225 298.484473,697.230641 C298.405258,679.029627 298.798092,670.257305 300.835,659.375961 C305.837242,632.653541 320.097958,612.123986 348.228658,596.971229 C381.756539,578.911251 434.199761,569.393229 509.910726,569.393229 Z"/>
      <path stroke="url(#mushroom-big-b)" d="M509.910726,569.393229 C600.485284,569.393229 656.997829,581.359071 688.232225,604.619334 C701.893781,614.793099 710.73871,627.084085 715.825108,641.817242 C719.921046,653.681452 721.491014,666.266416 721.764609,683.519399 C721.82327,687.218592 721.827688,690.178387 721.805822,696.764329 C721.79678,699.487845 721.7938,700.680803 721.7938,702.175826 C721.7938,730.703395 716.148529,756.78676 706.235298,778.687825 C697.841443,797.232168 686.695655,811.785398 676.186951,818.853655 C675.693251,819.185722 675.179767,819.534795 674.555179,819.962247 C674.339806,820.109643 674.119806,820.260461 673.823764,820.463596 C673.45598,820.716003 673.45598,820.716003 673.085653,820.97007 C672.481699,821.384279 672.030375,821.692705 671.581968,821.997122 C670.417573,822.787613 669.413458,823.454471 668.414758,824.096171 C657.317946,831.226256 645.386978,835.747856 625.072083,839.293848 C599.811575,843.703102 562.928411,846 509.910726,846 C457.86997,846 421.086455,843.757521 395.51768,839.469716 C374.789796,835.993714 362.153585,831.473511 351.14372,824.68404 C349.810464,823.86186 348.495038,823.00773 346.986557,821.993752 C346.091743,821.392272 342.925939,819.230335 343.194942,819.41326 C342.899083,819.212073 342.62672,819.027568 342.365256,818.851305 C332.576529,812.252349 321.673751,795.874052 313.24417,775.184674 C303.962882,752.404887 298.499042,726.678393 298.499042,702.175826 C298.499042,700.829836 298.49556,699.778225 298.484473,697.230641 C298.405258,679.029627 298.798092,670.257305 300.835,659.375961 C305.837242,632.653541 320.097958,612.123986 348.228658,596.971229 C381.756539,578.911251 434.199761,569.393229 509.910726,569.393229 Z"/>
    </g>
    <path fill="#404040" d="M454.252694 695.088542C471.239224 695.088542 471.239224 672.263808 471.239224 644.108073 471.239224 615.952337 471.239224 593.127604 454.252694 593.127604 437.266164 593.127604 437.266164 615.952337 437.266164 644.108073 437.266164 672.263808 437.266164 695.088542 454.252694 695.088542zM566.035022 695.088542C583.021552 695.088542 583.021552 672.263808 583.021552 644.108073 583.021552 615.952337 583.021552 593.127604 566.035022 593.127604 549.048491 593.127604 549.048491 615.952337 549.048491 644.108073 549.048491 672.263808 549.048491 695.088542 566.035022 695.088542z"/>
  </g>
</svg>
