<svg xmlns="http://www.w3.org/2000/svg" width="460" height="437" viewBox="0 0 460 437">
  <defs>
    <linearGradient id="mushroom-a" x1="50%" x2="50%" y1="0%" y2="100%">
      <stop offset="0%" stop-color="#EC1C24"/>
      <stop offset="100%" stop-opacity=".15"/>
    </linearGradient>
    <linearGradient id="mushroom-b" x1="50%" x2="50%" y1="0%" y2="100%">
      <stop offset="0%" stop-opacity="0"/>
      <stop offset="100%" stop-opacity=".15"/>
    </linearGradient>
  </defs>
  <g fill="none" fill-rule="evenodd" transform="translate(8 8)">
    <g stroke-width="8">
      <path fill="#EC1C24" stroke="#EC1C24" d="M224.312815,363.643498 C148.807486,363.643498 100.647322,358.578143 64.0848553,343.946356 C19.1596186,325.967905 -4,293.514401 -4,242.557489 C-4,100.446139 95.0130795,-4 224.312815,-4 C350.635115,-4 447.654709,103.495382 447.654709,242.557489 C447.654709,289.595485 425.214851,321.517485 382.184647,340.514467 C345.331635,356.784341 294.029662,363.643498 224.312815,363.643498 Z"/>
      <path stroke="url(#mushroom-a)" d="M224.312815,363.643498 C148.807486,363.643498 100.647322,358.578143 64.0848553,343.946356 C19.1596186,325.967905 -4,293.514401 -4,242.557489 C-4,100.446139 95.0130795,-4 224.312815,-4 C350.635115,-4 447.654709,103.495382 447.654709,242.557489 C447.654709,289.595485 425.214851,321.517485 382.184647,340.514467 C345.331635,356.784341 294.029662,363.643498 224.312815,363.643498 Z"/>
    </g>
    <path fill="#FFF" d="M414.782958,119.873444 C433.235783,155.601725 443.654709,197.386676 443.654709,242.532867 C443.654709,260.265409 440.350339,275.454747 434.167581,288.433809 C433.146932,288.331584 432.14006,288.219476 431.14791,288.097655 C393.427379,283.26239 374.205698,242.856114 380.135802,191.141761 C383.229075,164.16641 394.701158,138.067334 414.782945,119.873428 Z"/>
    <path fill="#FFF" stroke="#979797" d="M224.959416,219.939462 C286.629871,219.939462 332.269058,169.847694 332.269058,108.056367 C332.269058,58.7311229 286.629871,23.5986547 224.959416,23.5986547 C163.288962,23.5986547 115.161435,53.1213856 115.161435,108.056367 C115.161435,169.847694 163.288962,219.939462 224.959416,219.939462 Z"/>
    <path fill="#FFF" d="M8.20369118,288.959889 C2.85628924,276.155349 0,261.118955 0,243.471971 C0,197.528278 10.3217465,156.040627 28.4566513,120.867995 C28.5056228,120.896341 28.5546099,120.924705 28.6036126,120.953086 C78.2433133,149.703162 87.1072338,282.617084 10.3546511,288.783343 C9.63025827,288.84154 8.91330966,288.900407 8.20369118,288.959889 Z"/>
    <g stroke-width="8">
      <path fill="#FFD29D" stroke="#FFD29D" d="M333.150188,406.740796 C317.994866,419.118979 281.389448,425 222.61765,425 C163.683669,425 126.806549,418.87027 111.322892,406.001772 L111.185369,405.882074 C91.7373257,388.159768 81.9183575,367.312809 81.9183575,343.560177 C81.9183575,342.675299 81.9160669,341.983106 81.9087681,340.305255 C81.8561933,328.219182 82.1177992,322.374405 83.48114,315.087725 C86.8515879,297.073609 96.4961614,283.182547 115.410039,272.989455 C137.74006,260.955331 172.512741,254.641256 222.61765,254.641256 C282.580248,254.641256 320.084741,262.586293 340.959678,278.139534 C350.186269,285.01397 356.178987,293.34561 359.619364,303.315852 C362.37511,311.302029 363.425811,319.72867 363.608212,331.236604 C363.647058,333.687424 363.649978,335.644933 363.635538,339.996366 C363.629583,341.790733 363.627622,342.576375 363.627622,343.560177 C363.627622,371.375212 353.442433,392.582761 333.150188,406.740796 Z"/>
      <path stroke="url(#mushroom-b)" d="M333.150188,406.740796 C317.994866,419.118979 281.389448,425 222.61765,425 C163.683669,425 126.806549,418.87027 111.322892,406.001772 L111.185369,405.882074 C91.7373257,388.159768 81.9183575,367.312809 81.9183575,343.560177 C81.9183575,342.675299 81.9160669,341.983106 81.9087681,340.305255 C81.8561933,328.219182 82.1177992,322.374405 83.48114,315.087725 C86.8515879,297.073609 96.4961614,283.182547 115.410039,272.989455 C137.74006,260.955331 172.512741,254.641256 222.61765,254.641256 C282.580248,254.641256 320.084741,262.586293 340.959678,278.139534 C350.186269,285.01397 356.178987,293.34561 359.619364,303.315852 C362.37511,311.302029 363.425811,319.72867 363.608212,331.236604 C363.647058,333.687424 363.649978,335.644933 363.635538,339.996366 C363.629583,341.790733 363.627622,342.576375 363.627622,343.560177 C363.627622,371.375212 353.442433,392.582761 333.150188,406.740796 Z"/>
    </g>
    <path fill="#404040" d="M169.910314 373.802691C185.957399 373.802691 185.957399 353.516974 185.957399 328.493274 185.957399 303.469573 185.957399 283.183857 169.910314 283.183857 153.863229 283.183857 153.863229 303.469573 153.863229 328.493274 153.863229 353.516974 153.863229 373.802691 169.910314 373.802691zM275.632287 373.802691C291.679372 373.802691 291.679372 353.516974 291.679372 328.493274 291.679372 303.469573 291.679372 283.183857 275.632287 283.183857 259.585202 283.183857 259.585202 303.469573 259.585202 328.493274 259.585202 353.516974 259.585202 373.802691 275.632287 373.802691z"/>
  </g>
</svg>
