<svg xmlns="http://www.w3.org/2000/svg" width="216" height="216" viewBox="0 0 216 216">
  <path fill="#FFF" fill-opacity=".5" fill-rule="evenodd" d="M192.375,108 C192.375,88.8749044 186.750056,71.6250769 175.5,56.25 C164.249944,40.8749231 149.812588,30.5625263 132.1875,25.3125 L132.1875,0 C156.18762,5.62502812 176.15617,18.5623988 192.09375,38.8125 C208.03133,59.0626012 216,82.1248706 216,108 C216,128.250101 211.500045,146.249921 202.5,162 L184.5,144 C189.750026,132.749944 192.375,120.750064 192.375,108 Z M108,9 L108,67.5 L79.3125,38.8125 L108,9 Z M15.1875,1.6875 L214.3125,200.8125 L200.8125,214.3125 L178.3125,191.8125 C164.812432,204.187562 149.437586,212.249981 132.1875,216 L132.1875,190.6875 C143.812558,186.937481 153.562461,181.687534 161.4375,174.9375 L108,121.5 L108,207 L47.8125,144 L0,144 L0,72 L47.8125,72 L52.875,66.375 L1.6875,15.1875 L15.1875,1.6875 Z M162,108 C162,113.625028 161.625004,117.749987 160.875,120.375 L132.1875,91.6875 L132.1875,57.9375 C141.187545,62.4375225 148.406223,69.2812041 153.84375,78.46875 C159.281277,87.6562959 162,97.4999475 162,108 Z"/>
</svg>
