<svg xmlns="http://www.w3.org/2000/svg" width="216" height="216" viewBox="0 0 216 216">
  <path fill="#FFF" fill-opacity=".5" fill-rule="evenodd" d="M0,72 L47.8125,72 L108,9 L108,207 L47.8125,144 L0,144 L0,72 Z M162,108 C162,118.875054 159.281277,128.812455 153.84375,137.8125 C148.406223,146.812545 141.187545,153.374979 132.1875,157.5 L132.1875,57.9375 C141.187545,62.4375225 148.406223,69.2812041 153.84375,78.46875 C159.281277,87.6562959 162,97.4999475 162,108 Z M132.1875,0 C156.18762,5.62502812 176.15617,18.5623988 192.09375,38.8125 C208.03133,59.0626012 216,82.1248706 216,108 C216,133.875129 208.03133,156.937399 192.09375,177.1875 C176.15617,197.437601 156.18762,210.374972 132.1875,216 L132.1875,190.6875 C149.812588,185.437474 164.156195,175.125077 175.21875,159.75 C186.281305,144.374923 191.8125,127.125096 191.8125,108 C191.8125,88.8749044 186.281305,71.6250769 175.21875,56.25 C164.156195,40.8749231 149.812588,30.5625263 132.1875,25.3125 L132.1875,0 Z"/>
</svg>
