<svg xmlns="http://www.w3.org/2000/svg" width="437" height="437" viewBox="0 0 437 437">
  <g fill="none" fill-rule="evenodd" transform="translate(8 8)">
    <g stroke-width="8">
      <path fill="#FD0" stroke="#FD0" d="M293.740677,112.786322 C377.080232,129.913349 419.370079,144.471268 423.845475,159.253636 C428.277776,173.893659 402.087251,212.46948 344.165983,279.151134 C348.990836,322.520629 351.405333,355.87773 351.405333,379.266726 C351.405333,404.448498 348.807941,418.37701 342.053954,422.429403 C330.44998,429.391787 288.478904,416.163448 211.52319,382.646348 C136.151783,418.758239 93.5098667,431.886 80.0629898,421.414438 C66.73509,411.035528 66.6430609,364.237151 78.3118963,277.643094 C49.7416469,245.191076 28.6601494,219.386 15.0473902,200.193236 C0.512764448,179.700723 -5.76154779,166.665077 -3.55652031,159.269754 C-1.32331403,151.779924 10.9880705,144.946319 34.1245033,137.124627 C55.7097687,129.827335 86.9938571,121.729076 128.016025,112.812124 C148.19073,74.7321311 164.889158,46.0776339 178.140065,26.8147405 C192.31741,6.20508113 202.587492,-4 210.702601,-4 C218.813323,-4 229.112351,6.20156083 243.352853,26.8076321 C256.662672,46.0670028 273.449043,74.7153299 293.740677,112.786322 Z"/>
      <path stroke="#979797" stroke-opacity=".15" d="M293.740677,112.786322 C377.080232,129.913349 419.370079,144.471268 423.845475,159.253636 C428.277776,173.893659 402.087251,212.46948 344.165983,279.151134 C348.990836,322.520629 351.405333,355.87773 351.405333,379.266726 C351.405333,404.448498 348.807941,418.37701 342.053954,422.429403 C330.44998,429.391787 288.478904,416.163448 211.52319,382.646348 C136.151783,418.758239 93.5098667,431.886 80.0629898,421.414438 C66.73509,411.035528 66.6430609,364.237151 78.3118963,277.643094 C49.7416469,245.191076 28.6601494,219.386 15.0473902,200.193236 C0.512764448,179.700723 -5.76154779,166.665077 -3.55652031,159.269754 C-1.32331403,151.779924 10.9880705,144.946319 34.1245033,137.124627 C55.7097687,129.827335 86.9938571,121.729076 128.016025,112.812124 C148.19073,74.7321311 164.889158,46.0776339 178.140065,26.8147405 C192.31741,6.20508113 202.587492,-4 210.702601,-4 C218.813323,-4 229.112351,6.20156083 243.352853,26.8076321 C256.662672,46.0670028 273.449043,74.7153299 293.740677,112.786322 Z"/>
    </g>
    <path fill="#404040" d="M159.047085 255.618834C175.09417 255.618834 175.09417 235.333117 175.09417 210.309417 175.09417 185.285717 175.09417 165 159.047085 165 143 165 143 185.285717 143 210.309417 143 235.333117 143 255.618834 159.047085 255.618834zM265.047085 255.618834C281.09417 255.618834 281.09417 235.333117 281.09417 210.309417 281.09417 185.285717 281.09417 165 265.047085 165 249 165 249 185.285717 249 210.309417 249 235.333117 249 255.618834 265.047085 255.618834z"/>
  </g>
</svg>
